# Blender 4.2.0
# www.blender.org
mtllib WallObj.mtl
o Cube
v -0.500000 0.500000 0.500000
v -0.500000 -0.500000 0.500000
v -0.500000 0.500000 -0.500000
v -0.500000 -0.500000 -0.500000
v 0.500000 0.500000 0.500000
v 0.500000 -0.500000 0.500000
v 0.500000 0.500000 -0.500000
v 0.500000 -0.500000 -0.500000
v 0.000000 1.815632 0.000000
v 0.083333 1.750000 0.083333
v 0.166667 1.500000 0.166667
v 0.306293 1.250000 0.176592
v 0.333333 1.000000 0.333333
v 0.284607 0.750000 0.515966
v -0.515966 0.750000 -0.284607
v -0.333333 1.000000 -0.333333
v -0.176592 1.250000 -0.306293
v -0.166667 1.500000 -0.166667
v -0.083333 1.750000 -0.083333
v 0.515966 0.750000 -0.284607
v 0.333333 1.000000 -0.333333
v 0.176592 1.250000 -0.306293
v 0.166667 1.500000 -0.166667
v 0.083333 1.750000 -0.083333
v -0.083333 1.750000 0.083333
v -0.166667 1.500000 0.166667
v -0.306293 1.250000 0.176592
v -0.333333 1.000000 0.333333
v -0.284607 0.750000 0.515966
vn -0.6187 0.7856 -0.0000
vn -0.0000 -0.0000 -1.0000
vn 1.0000 -0.0000 -0.0000
vn -0.0000 -1.0000 -0.0000
vn -1.0000 -0.0000 -0.0000
vn -0.0000 -0.0000 1.0000
vn -0.0000 0.6527 -0.7576
vn 0.7576 0.6527 -0.0000
vn -0.0000 -0.0637 0.9980
vn -0.0000 0.5899 0.8075
vn -0.0000 0.5312 0.8472
vn -0.0000 0.0397 0.9992
vn -0.0000 0.3162 0.9487
vn -0.0000 0.7856 0.6187
vn 0.6187 0.7856 -0.0000
vn 0.9487 0.3162 -0.0000
vn 0.8537 0.4677 -0.2293
vn 0.9942 0.1075 -0.0000
vn 0.9606 0.0156 0.2776
vn 0.9992 0.0397 -0.0000
vn 0.8158 0.5352 -0.2191
vn 0.8075 0.5899 -0.0000
vn 0.9200 -0.2878 0.2659
vn -0.0000 0.7856 -0.6187
vn -0.0000 0.3162 -0.9487
vn -0.0000 0.4876 -0.8731
vn -0.0000 0.1075 -0.9942
vn -0.0000 -0.1913 -0.9815
vn -0.9487 0.3162 -0.0000
vn -0.8731 0.4876 -0.0000
vn -0.9500 0.1802 -0.2552
vn -0.9641 -0.0581 -0.2590
vn -0.8472 0.5312 -0.0000
vn -0.9815 -0.1913 -0.0000
vn -0.7664 0.6030 0.2215
vn -0.7465 0.6294 0.2157
vn -0.9980 -0.0637 -0.0000
vt 0.825658 0.961652
vt 0.808716 0.936858
vt 0.845736 0.939322
vt 0.667839 0.222613
vt 0.445226 0.445226
vt 0.445226 0.222613
vt 0.000000 0.667839
vt 0.222613 0.445226
vt 0.222613 0.667839
vt 0.222613 0.222613
vt 0.000000 0.222613
vt 0.222613 0.000000
vt 0.000000 0.445226
vt 0.003554 0.667839
vt 0.226167 0.667839
vt 0.000000 0.741299
vt 0.667839 0.445226
vt 0.000000 0.000000
vt 0.501823 0.674554
vt 0.724176 0.663796
vt 0.501823 0.748100
vt 0.481631 0.667839
vt 0.306967 0.723606
vt 0.259018 0.667839
vt 0.433682 0.723606
vt 0.296120 0.792528
vt 0.444529 0.792528
vt 0.302140 0.858214
vt 0.438510 0.858214
vt 0.333223 0.913912
vt 0.407427 0.913912
vt 0.351774 0.972575
vt 0.388876 0.972575
vt 0.370325 0.996189
vt 0.610669 0.975898
vt 0.647771 0.975815
vt 0.629273 0.999470
vt 0.591986 0.917276
vt 0.666191 0.917110
vt 0.586100 0.853765
vt 0.697148 0.861344
vt 0.550028 0.798540
vt 0.698404 0.795393
vt 0.686098 0.726717
vt 0.096310 0.976386
vt 0.133412 0.976386
vt 0.114861 1.000000
vt 0.077759 0.917723
vt 0.151963 0.917723
vt 0.075549 0.853978
vt 0.154172 0.853978
vt 0.040656 0.798000
vt 0.189065 0.798000
vt 0.229721 0.741299
vt 0.868142 0.882019
vt 0.794101 0.877092
vt 0.874579 0.818562
vt 0.763305 0.821236
vt 0.908489 0.761984
vt 0.760229 0.755346
vt 0.951641 0.707158
vt 0.767348 0.685940
vt 0.943216 0.634096
vt 0.720659 0.629114
s 0
usemtl Material
f 9/1/1 19/2/1 25/3/1
f 3/4/2 8/5/2 4/6/2
f 7/7/3 6/8/3 8/9/3
f 2/10/4 8/5/4 6/8/4
f 1/11/5 4/12/5 2/10/5
f 5/13/6 2/10/6 6/8/6
f 7/14/7 3/15/7 20/16/7
f 3/4/2 7/17/2 8/5/2
f 7/7/3 5/13/3 6/8/3
f 2/10/4 4/6/4 8/5/4
f 1/11/5 3/18/5 4/12/5
f 5/13/6 1/11/6 2/10/6
f 5/19/8 7/20/8 14/21/8
f 5/22/9 29/23/9 1/24/9
f 5/22/9 14/25/9 29/23/9
f 14/25/10 28/26/10 29/23/10
f 14/25/10 13/27/10 28/26/10
f 13/27/11 27/28/11 28/26/11
f 13/27/11 12/29/11 27/28/11
f 12/29/12 26/30/12 27/28/12
f 12/29/12 11/31/12 26/30/12
f 11/31/13 25/32/13 26/30/13
f 11/31/13 10/33/13 25/32/13
f 10/33/14 9/34/14 25/32/14
f 10/35/15 24/36/15 9/37/15
f 11/38/16 23/39/16 10/35/16
f 12/40/17 22/41/17 11/38/17
f 13/42/18 21/43/18 12/40/18
f 14/21/19 20/44/19 13/42/19
f 10/35/16 23/39/16 24/36/16
f 11/38/20 22/41/20 23/39/20
f 12/40/21 21/43/21 22/41/21
f 13/42/22 20/44/22 21/43/22
f 14/21/23 7/20/23 20/44/23
f 24/45/24 19/46/24 9/47/24
f 23/48/25 18/49/25 24/45/25
f 22/50/26 17/51/26 23/48/26
f 21/52/27 16/53/27 22/50/27
f 20/16/28 15/54/28 21/52/28
f 24/45/25 18/49/25 19/46/25
f 23/48/26 17/51/26 18/49/26
f 22/50/27 16/53/27 17/51/27
f 21/52/28 15/54/28 16/53/28
f 20/16/7 3/15/7 15/54/7
f 25/3/29 19/2/29 26/55/29
f 19/2/29 18/56/29 26/55/29
f 26/55/30 18/56/30 27/57/30
f 18/56/31 17/58/31 27/57/31
f 27/57/32 17/58/32 28/59/32
f 17/58/33 16/60/33 28/59/33
f 28/59/34 16/60/34 29/61/34
f 16/60/35 15/62/35 29/61/35
f 29/61/36 15/62/36 1/63/36
f 15/62/37 3/64/37 1/63/37
