<?xml version="1.0" encoding="UTF-8" standalone="no"?>
<!-- Created with Inkscape (http://www.inkscape.org/) -->

<svg
   width="2560"
   height="720"
   viewBox="0 0 677.33332 190.5"
   version="1.1"
   id="svg1"
   inkscape:version="1.3 (0e150ed6c4, 2023-07-21)"
   sodipodi:docname="backGround.svg"
   inkscape:export-filename="backGround.png"
   inkscape:export-xdpi="96"
   inkscape:export-ydpi="96"
   xmlns:inkscape="http://www.inkscape.org/namespaces/inkscape"
   xmlns:sodipodi="http://sodipodi.sourceforge.net/DTD/sodipodi-0.dtd"
   xmlns:xlink="http://www.w3.org/1999/xlink"
   xmlns="http://www.w3.org/2000/svg"
   xmlns:svg="http://www.w3.org/2000/svg">
  <sodipodi:namedview
     id="namedview1"
     pagecolor="#ffffff"
     bordercolor="#000000"
     borderopacity="0.25"
     inkscape:showpageshadow="2"
     inkscape:pageopacity="0.0"
     inkscape:pagecheckerboard="0"
     inkscape:deskcolor="#d1d1d1"
     inkscape:document-units="px"
     inkscape:zoom="0.25606581"
     inkscape:cx="1505.4724"
     inkscape:cy="716.61267"
     inkscape:window-width="1920"
     inkscape:window-height="1009"
     inkscape:window-x="-8"
     inkscape:window-y="-8"
     inkscape:window-maximized="1"
     inkscape:current-layer="layer1" />
  <defs
     id="defs1" />
  <g
     inkscape:label="Layer 1"
     inkscape:groupmode="layer"
     id="layer1">
    <rect
       style="display:none;fill:#550000;stroke-width:0.475001;stroke-linecap:square;paint-order:stroke fill markers"
       id="rect250"
       width="832.81"
       height="298.61301"
       x="-79.561256"
       y="-49.596626" />
    <circle
       style="stroke-width:0.10575;stroke-linecap:square;paint-order:stroke fill markers"
       id="path151"
       cx="35.967262"
       cy="-71.936363"
       r="1.9519242"
       inkscape:tile-cx="17.169741"
       inkscape:tile-cy="17.169742"
       inkscape:tile-w="8.0369004"
       inkscape:tile-h="8.0369004"
       inkscape:tile-x0="13.15129"
       inkscape:tile-y0="13.151292" />
    <use
       x="0"
       y="0"
       inkscape:tiled-clone-of="#path151"
       xlink:href="#path151"
       transform="matrix(0.94141078,0,0,0.94141078,39.395324,136.90789)"
       fill="#ffffff"
       stroke="#ffffff"
       id="use250" />
    <use
       x="0"
       y="0"
       inkscape:tiled-clone-of="#path151"
       xlink:href="#path151"
       transform="matrix(0.79953979,0,0,0.79953979,-9.2687723,83.614818)"
       fill="#ffffff"
       stroke="#ffffff"
       id="use251" />
    <use
       x="0"
       y="0"
       inkscape:tiled-clone-of="#path151"
       xlink:href="#path151"
       transform="matrix(0.49751535,0,0,0.49751535,38.640196,104.48097)"
       fill="#ffffff"
       stroke="#ffffff"
       id="use252" />
    <use
       x="0"
       y="0"
       inkscape:tiled-clone-of="#path151"
       xlink:href="#path151"
       transform="matrix(1.2888796,0,0,1.2888796,-35.432133,206.50915)"
       fill="#ffffff"
       stroke="#ffffff"
       id="use253" />
    <use
       x="0"
       y="0"
       inkscape:tiled-clone-of="#path151"
       xlink:href="#path151"
       transform="matrix(0.45017736,0,0,0.45017736,16.375485,132.28174)"
       fill="#ffffff"
       stroke="#ffffff"
       id="use254" />
    <use
       x="0"
       y="0"
       inkscape:tiled-clone-of="#path151"
       xlink:href="#path151"
       transform="matrix(1.3379616,0,0,1.3379616,-29.86653,247.30146)"
       fill="#ffffff"
       stroke="#ffffff"
       id="use255" />
    <use
       x="0"
       y="0"
       inkscape:tiled-clone-of="#path151"
       xlink:href="#path151"
       transform="matrix(0.78309214,0,0,0.78309214,-18.885838,143.72642)"
       fill="#ffffff"
       stroke="#ffffff"
       id="use256" />
    <use
       x="0"
       y="0"
       inkscape:tiled-clone-of="#path151"
       xlink:href="#path151"
       transform="matrix(0.68700929,0,0,0.68700929,47.794406,169.21638)"
       fill="#ffffff"
       stroke="#ffffff"
       id="use257" />
    <use
       x="0"
       y="0"
       inkscape:tiled-clone-of="#path151"
       xlink:href="#path151"
       transform="matrix(0.94160417,0,0,0.94160417,-25.600969,245.2882)"
       fill="#ffffff"
       stroke="#ffffff"
       id="use258" />
    <use
       x="0"
       y="0"
       inkscape:tiled-clone-of="#path151"
       xlink:href="#path151"
       transform="matrix(1.1064301,0,0,1.1064301,38.175201,256.68967)"
       fill="#ffffff"
       stroke="#ffffff"
       id="use259" />
    <use
       x="0"
       y="0"
       inkscape:tiled-clone-of="#path151"
       xlink:href="#path151"
       transform="matrix(1.4376666,0,0,1.4376666,56.433085,140.52301)"
       fill="#ffffff"
       stroke="#ffffff"
       id="use260" />
    <use
       x="0"
       y="0"
       inkscape:tiled-clone-of="#path151"
       xlink:href="#path151"
       transform="matrix(0.85364632,0,0,0.85364632,32.445817,134.89797)"
       fill="#ffffff"
       stroke="#ffffff"
       id="use261" />
    <use
       x="0"
       y="0"
       inkscape:tiled-clone-of="#path151"
       xlink:href="#path151"
       transform="matrix(1.1647936,0,0,1.1647936,74.566127,190.84198)"
       fill="#ffffff"
       stroke="#ffffff"
       id="use262" />
    <use
       x="0"
       y="0"
       inkscape:tiled-clone-of="#path151"
       xlink:href="#path151"
       transform="matrix(0.59608235,0,0,0.59608235,74.070605,138.08897)"
       fill="#ffffff"
       stroke="#ffffff"
       id="use263" />
    <use
       x="0"
       y="0"
       inkscape:tiled-clone-of="#path151"
       xlink:href="#path151"
       transform="matrix(0.45418214,0,0,0.45418214,64.009508,132.56007)"
       fill="#ffffff"
       stroke="#ffffff"
       id="use264" />
    <use
       x="0"
       y="0"
       inkscape:tiled-clone-of="#path151"
       xlink:href="#path151"
       transform="matrix(1.3763847,0,0,1.3763847,97.342485,238.78721)"
       fill="#ffffff"
       stroke="#ffffff"
       id="use265" />
    <use
       x="0"
       y="0"
       inkscape:tiled-clone-of="#path151"
       xlink:href="#path151"
       transform="matrix(0.89353946,0,0,0.89353946,111.36519,182.23495)"
       fill="#ffffff"
       stroke="#ffffff"
       id="use266" />
    <use
       x="0"
       y="0"
       inkscape:tiled-clone-of="#path151"
       xlink:href="#path151"
       transform="matrix(0.46573029,0,0,0.46573029,47.546722,185.96381)"
       fill="#ffffff"
       stroke="#ffffff"
       id="use267" />
    <use
       x="0"
       y="0"
       inkscape:tiled-clone-of="#path151"
       xlink:href="#path151"
       transform="matrix(0.49589144,0,0,0.49589144,79.763422,178.86661)"
       fill="#ffffff"
       stroke="#ffffff"
       id="use268" />
    <use
       x="0"
       y="0"
       inkscape:tiled-clone-of="#path151"
       xlink:href="#path151"
       transform="matrix(0.81533517,0,0,0.81533517,94.824637,233.95648)"
       fill="#ffffff"
       stroke="#ffffff"
       id="use269" />
    <use
       x="0"
       y="0"
       inkscape:tiled-clone-of="#path151"
       xlink:href="#path151"
       transform="matrix(0.68651817,0,0,0.68651817,171.76678,102.80377)"
       fill="#ffffff"
       stroke="#ffffff"
       id="use270" />
    <use
       x="0"
       y="0"
       inkscape:tiled-clone-of="#path151"
       xlink:href="#path151"
       transform="matrix(1.0897125,0,0,1.0897125,135.45889,135.5246)"
       fill="#ffffff"
       stroke="#ffffff"
       id="use271" />
    <use
       x="0"
       y="0"
       inkscape:tiled-clone-of="#path151"
       xlink:href="#path151"
       transform="matrix(0.9328574,0,0,0.9328574,111.03587,163.63049)"
       fill="#ffffff"
       stroke="#ffffff"
       id="use272" />
    <use
       x="0"
       y="0"
       inkscape:tiled-clone-of="#path151"
       xlink:href="#path151"
       transform="matrix(0.96235182,0,0,0.96235182,148.41583,138.34127)"
       fill="#ffffff"
       stroke="#ffffff"
       id="use273" />
    <use
       x="0"
       y="0"
       inkscape:tiled-clone-of="#path151"
       xlink:href="#path151"
       transform="matrix(0.97728027,0,0,0.97728027,185.87807,158.46669)"
       fill="#ffffff"
       stroke="#ffffff"
       id="use274" />
    <use
       x="0"
       y="0"
       inkscape:tiled-clone-of="#path151"
       xlink:href="#path151"
       transform="matrix(1.0340432,0,0,1.0340432,140.61696,206.79341)"
       fill="#ffffff"
       stroke="#ffffff"
       id="use275" />
    <use
       x="0"
       y="0"
       inkscape:tiled-clone-of="#path151"
       xlink:href="#path151"
       transform="matrix(0.98777314,0,0,0.98777314,80.381696,184.63516)"
       fill="#ffffff"
       stroke="#ffffff"
       id="use276" />
    <use
       x="0"
       y="0"
       inkscape:tiled-clone-of="#path151"
       xlink:href="#path151"
       transform="matrix(1.2184851,0,0,1.2184851,80.556108,227.51986)"
       fill="#ffffff"
       stroke="#ffffff"
       id="use277" />
    <use
       x="0"
       y="0"
       inkscape:tiled-clone-of="#path151"
       xlink:href="#path151"
       transform="matrix(0.50883882,0,0,0.50883882,165.44424,173.57686)"
       fill="#ffffff"
       stroke="#ffffff"
       id="use278" />
    <use
       x="0"
       y="0"
       inkscape:tiled-clone-of="#path151"
       xlink:href="#path151"
       transform="matrix(0.51321299,0,0,0.51321299,204.13706,179.58458)"
       fill="#ffffff"
       stroke="#ffffff"
       id="use279" />
    <use
       x="0"
       y="0"
       inkscape:tiled-clone-of="#path151"
       xlink:href="#path151"
       transform="matrix(1.3108282,0,0,1.3108282,235.4927,163.8576)"
       fill="#ffffff"
       stroke="#ffffff"
       id="use280" />
    <use
       x="0"
       y="0"
       inkscape:tiled-clone-of="#path151"
       xlink:href="#path151"
       transform="matrix(1.3954705,0,0,1.3954705,166.48818,121.09159)"
       fill="#ffffff"
       stroke="#ffffff"
       id="use281" />
    <use
       x="0"
       y="0"
       inkscape:tiled-clone-of="#path151"
       xlink:href="#path151"
       transform="matrix(0.50836857,0,0,0.50836857,270.91241,99.299768)"
       fill="#ffffff"
       stroke="#ffffff"
       id="use282" />
    <use
       x="0"
       y="0"
       inkscape:tiled-clone-of="#path151"
       xlink:href="#path151"
       transform="matrix(1.1076582,0,0,1.1076582,195.93353,188.49732)"
       fill="#ffffff"
       stroke="#ffffff"
       id="use283" />
    <use
       x="0"
       y="0"
       inkscape:tiled-clone-of="#path151"
       xlink:href="#path151"
       transform="matrix(0.647671,0,0,0.647671,168.14996,115.42237)"
       fill="#ffffff"
       stroke="#ffffff"
       id="use284" />
    <use
       x="0"
       y="0"
       inkscape:tiled-clone-of="#path151"
       xlink:href="#path151"
       transform="matrix(0.56447648,0,0,0.56447648,234.91698,136.01409)"
       fill="#ffffff"
       stroke="#ffffff"
       id="use285" />
    <use
       x="0"
       y="0"
       inkscape:tiled-clone-of="#path151"
       xlink:href="#path151"
       transform="matrix(0.86435806,0,0,0.86435806,227.77577,161.19099)"
       fill="#ffffff"
       stroke="#ffffff"
       id="use286" />
    <use
       x="0"
       y="0"
       inkscape:tiled-clone-of="#path151"
       xlink:href="#path151"
       transform="matrix(0.31724862,0,0,0.31724862,226.72292,189.78035)"
       fill="#ffffff"
       stroke="#ffffff"
       id="use287" />
    <use
       x="0"
       y="0"
       inkscape:tiled-clone-of="#path151"
       xlink:href="#path151"
       transform="matrix(0.73417905,0,0,0.73417905,238.94589,230.52893)"
       fill="#ffffff"
       stroke="#ffffff"
       id="use288" />
    <use
       x="0"
       y="0"
       inkscape:tiled-clone-of="#path151"
       xlink:href="#path151"
       transform="matrix(0.6322669,0,0,0.6322669,198.69163,217.79633)"
       fill="#ffffff"
       stroke="#ffffff"
       id="use289" />
    <use
       x="0"
       y="0"
       inkscape:tiled-clone-of="#path151"
       xlink:href="#path151"
       transform="matrix(0.72415063,0,0,0.72415063,247.04557,73.059661)"
       fill="#ffffff"
       stroke="#ffffff"
       id="use290" />
    <use
       x="0"
       y="0"
       inkscape:tiled-clone-of="#path151"
       xlink:href="#path151"
       transform="matrix(1.1748696,0,0,1.1748696,272.55938,163.33231)"
       fill="#ffffff"
       stroke="#ffffff"
       id="use291" />
    <use
       x="0"
       y="0"
       inkscape:tiled-clone-of="#path151"
       xlink:href="#path151"
       transform="matrix(0.6367988,0,0,0.6367988,343.50318,109.53723)"
       fill="#ffffff"
       stroke="#ffffff"
       id="use292" />
    <use
       x="0"
       y="0"
       inkscape:tiled-clone-of="#path151"
       xlink:href="#path151"
       transform="matrix(0.59241107,0,0,0.59241107,295.75352,150.78367)"
       fill="#ffffff"
       stroke="#ffffff"
       id="use293" />
    <use
       x="0"
       y="0"
       inkscape:tiled-clone-of="#path151"
       xlink:href="#path151"
       transform="matrix(0.42982245,0,0,0.42982245,273.97269,130.35125)"
       fill="#ffffff"
       stroke="#ffffff"
       id="use294" />
    <use
       x="0"
       y="0"
       inkscape:tiled-clone-of="#path151"
       xlink:href="#path151"
       transform="matrix(0.37748835,0,0,0.37748835,291.47373,153.66416)"
       fill="#ffffff"
       stroke="#ffffff"
       id="use295" />
    <use
       x="0"
       y="0"
       inkscape:tiled-clone-of="#path151"
       xlink:href="#path151"
       transform="matrix(0.36388573,0,0,0.36388573,267.03344,124.53739)"
       fill="#ffffff"
       stroke="#ffffff"
       id="use296" />
    <use
       x="0"
       y="0"
       inkscape:tiled-clone-of="#path151"
       xlink:href="#path151"
       transform="matrix(0.38337443,0,0,0.38337443,250.74048,127.78552)"
       fill="#ffffff"
       stroke="#ffffff"
       id="use297" />
    <use
       x="0"
       y="0"
       inkscape:tiled-clone-of="#path151"
       xlink:href="#path151"
       transform="matrix(1.1960896,0,0,1.1960896,316.1486,229.05051)"
       fill="#ffffff"
       stroke="#ffffff"
       id="use298" />
    <use
       x="0"
       y="0"
       inkscape:tiled-clone-of="#path151"
       xlink:href="#path151"
       transform="matrix(0.55633827,0,0,0.55633827,328.16529,194.27533)"
       fill="#ffffff"
       stroke="#ffffff"
       id="use299" />
    <use
       x="0"
       y="0"
       inkscape:tiled-clone-of="#path151"
       xlink:href="#path151"
       transform="matrix(1.2040521,0,0,1.2040521,312.09331,109.4708)"
       fill="#ffffff"
       stroke="#ffffff"
       id="use300" />
    <use
       x="0"
       y="0"
       inkscape:tiled-clone-of="#path151"
       xlink:href="#path151"
       transform="matrix(0.7961905,0,0,0.7961905,317.03623,96.027642)"
       fill="#ffffff"
       stroke="#ffffff"
       id="use301" />
    <use
       x="0"
       y="0"
       inkscape:tiled-clone-of="#path151"
       xlink:href="#path151"
       transform="matrix(0.90703359,0,0,0.90703359,335.24768,126.33808)"
       fill="#ffffff"
       stroke="#ffffff"
       id="use302" />
    <use
       x="0"
       y="0"
       inkscape:tiled-clone-of="#path151"
       xlink:href="#path151"
       transform="matrix(0.44418152,0,0,0.44418152,378.02044,77.285639)"
       fill="#ffffff"
       stroke="#ffffff"
       id="use303" />
    <use
       x="0"
       y="0"
       inkscape:tiled-clone-of="#path151"
       xlink:href="#path151"
       transform="matrix(1.1316841,0,0,1.1316841,349.93437,187.74925)"
       fill="#ffffff"
       stroke="#ffffff"
       id="use304" />
    <use
       x="0"
       y="0"
       inkscape:tiled-clone-of="#path151"
       xlink:href="#path151"
       transform="matrix(1.2609692,0,0,1.2609692,306.61029,196.50556)"
       fill="#ffffff"
       stroke="#ffffff"
       id="use305" />
    <use
       x="0"
       y="0"
       inkscape:tiled-clone-of="#path151"
       xlink:href="#path151"
       transform="matrix(0.75285219,0,0,0.75285219,366.51899,174.40227)"
       fill="#ffffff"
       stroke="#ffffff"
       id="use306" />
    <use
       x="0"
       y="0"
       inkscape:tiled-clone-of="#path151"
       xlink:href="#path151"
       transform="matrix(1.2550703,0,0,1.2550703,362.05232,224.06521)"
       fill="#ffffff"
       stroke="#ffffff"
       id="use307" />
    <use
       x="0"
       y="0"
       inkscape:tiled-clone-of="#path151"
       xlink:href="#path151"
       transform="matrix(0.42191128,0,0,0.42191128,365.32949,195.49558)"
       fill="#ffffff"
       stroke="#ffffff"
       id="use308" />
    <use
       x="0"
       y="0"
       inkscape:tiled-clone-of="#path151"
       xlink:href="#path151"
       transform="matrix(0.72815679,0,0,0.72815679,342.10837,236.22308)"
       fill="#ffffff"
       stroke="#ffffff"
       id="use309" />
    <use
       x="0"
       y="0"
       inkscape:tiled-clone-of="#path151"
       xlink:href="#path151"
       transform="matrix(0.63391728,0,0,0.63391728,478.51708,93.619115)"
       fill="#ffffff"
       stroke="#ffffff"
       id="use310" />
    <use
       x="0"
       y="0"
       inkscape:tiled-clone-of="#path151"
       xlink:href="#path151"
       transform="matrix(0.67406384,0,0,0.67406384,476.44613,79.945429)"
       fill="#ffffff"
       stroke="#ffffff"
       id="use311" />
    <use
       x="0"
       y="0"
       inkscape:tiled-clone-of="#path151"
       xlink:href="#path151"
       transform="matrix(1.1051643,0,0,1.1051643,436.55672,170.47875)"
       fill="#ffffff"
       stroke="#ffffff"
       id="use312" />
    <use
       x="0"
       y="0"
       inkscape:tiled-clone-of="#path151"
       xlink:href="#path151"
       transform="matrix(1.2111985,0,0,1.2111985,410.68519,154.65058)"
       fill="#ffffff"
       stroke="#ffffff"
       id="use313" />
    <use
       x="0"
       y="0"
       inkscape:tiled-clone-of="#path151"
       xlink:href="#path151"
       transform="matrix(0.95694237,0,0,0.95694237,384.8234,188.5407)"
       fill="#ffffff"
       stroke="#ffffff"
       id="use314" />
    <use
       x="0"
       y="0"
       inkscape:tiled-clone-of="#path151"
       xlink:href="#path151"
       transform="matrix(1.0116652,0,0,1.0116652,467.8015,158.94407)"
       fill="#ffffff"
       stroke="#ffffff"
       id="use315" />
    <use
       x="0"
       y="0"
       inkscape:tiled-clone-of="#path151"
       xlink:href="#path151"
       transform="matrix(0.92411604,0,0,0.92411604,421.05081,171.97179)"
       fill="#ffffff"
       stroke="#ffffff"
       id="use316" />
    <use
       x="0"
       y="0"
       inkscape:tiled-clone-of="#path151"
       xlink:href="#path151"
       transform="matrix(0.33434009,0,0,0.33434009,494.92043,174.0027)"
       fill="#ffffff"
       stroke="#ffffff"
       id="use317" />
    <use
       x="0"
       y="0"
       inkscape:tiled-clone-of="#path151"
       xlink:href="#path151"
       transform="matrix(0.93999359,0,0,0.93999359,480.29747,245.17917)"
       fill="#ffffff"
       stroke="#ffffff"
       id="use318" />
    <use
       x="0"
       y="0"
       inkscape:tiled-clone-of="#path151"
       xlink:href="#path151"
       transform="matrix(0.61768633,0,0,0.61768633,477.45119,190.43985)"
       fill="#ffffff"
       stroke="#ffffff"
       id="use319" />
    <use
       x="0"
       y="0"
       inkscape:tiled-clone-of="#path151"
       xlink:href="#path151"
       transform="matrix(1.071884,0,0,1.071884,453.80161,90.212607)"
       fill="#ffffff"
       stroke="#ffffff"
       id="use320" />
    <use
       x="0"
       y="0"
       inkscape:tiled-clone-of="#path151"
       xlink:href="#path151"
       transform="matrix(1.1598899,0,0,1.1598899,526.43229,132.04376)"
       fill="#ffffff"
       stroke="#ffffff"
       id="use321" />
    <use
       x="0"
       y="0"
       inkscape:tiled-clone-of="#path151"
       xlink:href="#path151"
       transform="matrix(0.76724033,0,0,0.76724033,496.84592,100.60581)"
       fill="#ffffff"
       stroke="#ffffff"
       id="use322" />
    <use
       x="0"
       y="0"
       inkscape:tiled-clone-of="#path151"
       xlink:href="#path151"
       transform="matrix(0.6279811,0,0,0.6279811,507.30424,129.34982)"
       fill="#ffffff"
       stroke="#ffffff"
       id="use323" />
    <use
       x="0"
       y="0"
       inkscape:tiled-clone-of="#path151"
       xlink:href="#path151"
       transform="matrix(0.82577026,0,0,0.82577026,540.02583,191.82434)"
       fill="#ffffff"
       stroke="#ffffff"
       id="use324" />
    <use
       x="0"
       y="0"
       inkscape:tiled-clone-of="#path151"
       xlink:href="#path151"
       transform="matrix(0.83774156,0,0,0.83774156,466.25476,147.24228)"
       fill="#ffffff"
       stroke="#ffffff"
       id="use325" />
    <use
       x="0"
       y="0"
       inkscape:tiled-clone-of="#path151"
       xlink:href="#path151"
       transform="matrix(0.8700518,0,0,0.8700518,470.39032,218.29564)"
       fill="#ffffff"
       stroke="#ffffff"
       id="use326" />
    <use
       x="0"
       y="0"
       inkscape:tiled-clone-of="#path151"
       xlink:href="#path151"
       transform="matrix(0.98221765,0,0,0.98221765,549.43337,185.89056)"
       fill="#ffffff"
       stroke="#ffffff"
       id="use327" />
    <use
       x="0"
       y="0"
       inkscape:tiled-clone-of="#path151"
       xlink:href="#path151"
       transform="matrix(0.36271811,0,0,0.36271811,463.89746,168.48466)"
       fill="#ffffff"
       stroke="#ffffff"
       id="use328" />
    <use
       x="0"
       y="0"
       inkscape:tiled-clone-of="#path151"
       xlink:href="#path151"
       transform="matrix(0.6845362,0,0,0.6845362,559.52461,228.10463)"
       fill="#ffffff"
       stroke="#ffffff"
       id="use329" />
    <use
       x="0"
       y="0"
       inkscape:tiled-clone-of="#path151"
       xlink:href="#path151"
       transform="matrix(0.94263549,0,0,0.94263549,624.00755,130.84421)"
       fill="#ffffff"
       stroke="#ffffff"
       id="use330" />
    <use
       x="0"
       y="0"
       inkscape:tiled-clone-of="#path151"
       xlink:href="#path151"
       transform="matrix(0.4264017,0,0,0.4264017,585.18299,37.078035)"
       fill="#ffffff"
       stroke="#ffffff"
       id="use331" />
    <use
       x="0"
       y="0"
       inkscape:tiled-clone-of="#path151"
       xlink:href="#path151"
       transform="matrix(1.0183578,0,0,1.0183578,588.97905,107.91376)"
       fill="#ffffff"
       stroke="#ffffff"
       id="use332" />
    <use
       x="0"
       y="0"
       inkscape:tiled-clone-of="#path151"
       xlink:href="#path151"
       transform="matrix(0.58294489,0,0,0.58294489,601.39223,126.48513)"
       fill="#ffffff"
       stroke="#ffffff"
       id="use333" />
    <use
       x="0"
       y="0"
       inkscape:tiled-clone-of="#path151"
       xlink:href="#path151"
       transform="matrix(0.81963892,0,0,0.81963892,527.34836,141.79478)"
       fill="#ffffff"
       stroke="#ffffff"
       id="use334" />
    <use
       x="0"
       y="0"
       inkscape:tiled-clone-of="#path151"
       xlink:href="#path151"
       transform="matrix(0.35581353,0,0,0.35581353,566.29828,114.42167)"
       fill="#ffffff"
       stroke="#ffffff"
       id="use335" />
    <use
       x="0"
       y="0"
       inkscape:tiled-clone-of="#path151"
       xlink:href="#path151"
       transform="matrix(0.58509554,0,0,0.58509554,539.74316,134.15992)"
       fill="#ffffff"
       stroke="#ffffff"
       id="use336" />
    <use
       x="0"
       y="0"
       inkscape:tiled-clone-of="#path151"
       xlink:href="#path151"
       transform="matrix(0.82212144,0,0,0.82212144,610.04389,163.69168)"
       fill="#ffffff"
       stroke="#ffffff"
       id="use337" />
    <use
       x="0"
       y="0"
       inkscape:tiled-clone-of="#path151"
       xlink:href="#path151"
       transform="matrix(0.52535345,0,0,0.52535345,606.05666,209.41068)"
       fill="#ffffff"
       stroke="#ffffff"
       id="use338" />
    <use
       x="0"
       y="0"
       inkscape:tiled-clone-of="#path151"
       xlink:href="#path151"
       transform="matrix(0.67383676,0,0,0.67383676,606.66638,227.08128)"
       fill="#ffffff"
       stroke="#ffffff"
       id="use339" />
    <use
       x="0"
       y="0"
       inkscape:tiled-clone-of="#path151"
       xlink:href="#path151"
       transform="matrix(0.68516921,0,0,0.68516921,623.54772,90.26396)"
       fill="#ffffff"
       stroke="#ffffff"
       id="use340" />
    <use
       x="0"
       y="0"
       inkscape:tiled-clone-of="#path151"
       xlink:href="#path151"
       transform="matrix(0.88680389,0,0,0.88680389,590.50124,80.358675)"
       fill="#ffffff"
       stroke="#ffffff"
       id="use341" />
    <use
       x="0"
       y="0"
       inkscape:tiled-clone-of="#path151"
       xlink:href="#path151"
       transform="matrix(0.86065715,0,0,0.86065715,640.34161,146.9272)"
       fill="#ffffff"
       stroke="#ffffff"
       id="use342" />
    <use
       x="0"
       y="0"
       inkscape:tiled-clone-of="#path151"
       xlink:href="#path151"
       transform="matrix(1.049174,0,0,1.049174,605.42509,169.40222)"
       fill="#ffffff"
       stroke="#ffffff"
       id="use343" />
    <use
       x="0"
       y="0"
       inkscape:tiled-clone-of="#path151"
       xlink:href="#path151"
       transform="matrix(0.62402096,0,0,0.62402096,629.49633,148.07332)"
       fill="#ffffff"
       stroke="#ffffff"
       id="use344" />
    <use
       x="0"
       y="0"
       inkscape:tiled-clone-of="#path151"
       xlink:href="#path151"
       transform="matrix(0.94330666,0,0,0.94330666,608.51404,148.33719)"
       fill="#ffffff"
       stroke="#ffffff"
       id="use345" />
    <use
       x="0"
       y="0"
       inkscape:tiled-clone-of="#path151"
       xlink:href="#path151"
       transform="matrix(0.54645437,0,0,0.54645437,648.2095,119.00861)"
       fill="#ffffff"
       stroke="#ffffff"
       id="use346" />
    <use
       x="0"
       y="0"
       inkscape:tiled-clone-of="#path151"
       xlink:href="#path151"
       transform="matrix(0.81569337,0,0,0.81569337,607.45296,190.24806)"
       fill="#ffffff"
       stroke="#ffffff"
       id="use347" />
    <use
       x="0"
       y="0"
       inkscape:tiled-clone-of="#path151"
       xlink:href="#path151"
       transform="matrix(0.30787449,0,0,0.30787449,646.45717,183.65637)"
       fill="#ffffff"
       stroke="#ffffff"
       id="use348" />
    <use
       x="0"
       y="0"
       inkscape:tiled-clone-of="#path151"
       xlink:href="#path151"
       transform="matrix(0.40318109,0,0,0.40318109,610.43577,173.25267)"
       fill="#ffffff"
       stroke="#ffffff"
       id="use349" />
  </g>
</svg>
