<?xml version="1.0" encoding="UTF-8" standalone="no"?>
<!-- Created with Inkscape (http://www.inkscape.org/) -->

<svg
   width="2560"
   height="720"
   viewBox="0 0 677.33332 190.5"
   version="1.1"
   id="svg1"
   inkscape:version="1.3 (0e150ed6c4, 2023-07-21)"
   sodipodi:docname="backGround.svg"
   inkscape:export-filename="backGround.png"
   inkscape:export-xdpi="96"
   inkscape:export-ydpi="96"
   xmlns:inkscape="http://www.inkscape.org/namespaces/inkscape"
   xmlns:sodipodi="http://sodipodi.sourceforge.net/DTD/sodipodi-0.dtd"
   xmlns:xlink="http://www.w3.org/1999/xlink"
   xmlns="http://www.w3.org/2000/svg"
   xmlns:svg="http://www.w3.org/2000/svg">
  <sodipodi:namedview
     id="namedview1"
     pagecolor="#ffffff"
     bordercolor="#000000"
     borderopacity="0.25"
     inkscape:showpageshadow="2"
     inkscape:pageopacity="0.0"
     inkscape:pagecheckerboard="0"
     inkscape:deskcolor="#d1d1d1"
     inkscape:document-units="px"
     inkscape:zoom="0.25606581"
     inkscape:cx="1173.5264"
     inkscape:cy="271.4146"
     inkscape:window-width="1920"
     inkscape:window-height="1017"
     inkscape:window-x="1912"
     inkscape:window-y="167"
     inkscape:window-maximized="1"
     inkscape:current-layer="layer1" />
  <defs
     id="defs1" />
  <g
     inkscape:label="Layer 1"
     inkscape:groupmode="layer"
     id="layer1">
    <rect
       style="display:none;fill:#550000;stroke-width:0.475001;stroke-linecap:square;paint-order:stroke fill markers"
       id="rect250"
       width="832.81"
       height="298.61301"
       x="-79.561256"
       y="-49.596626"
       sodipodi:insensitive="true" />
    <circle
       style="stroke-width:0.0607344;stroke-linecap:square;paint-order:stroke fill markers"
       id="path151"
       cx="11.362989"
       cy="-44.869156"
       r="1.1210315"
       inkscape:tile-cx="17.169741"
       inkscape:tile-cy="17.169742"
       inkscape:tile-w="8.0369004"
       inkscape:tile-h="8.0369004"
       inkscape:tile-x0="13.15129"
       inkscape:tile-y0="13.151292" />
    <circle
       style="fill:#ffffff;stroke:#ffffff;stroke-width:0.0264413;stroke-linecap:square;paint-order:stroke fill markers"
       id="use933"
       cx="23.607424"
       cy="-2.5138249"
       r="0.48805073"
       inkscape:tile-x0="2.9288885"
       inkscape:tile-y0="1.8682584" />
    <circle
       style="fill:#ffffff;stroke:#ffffff;stroke-width:0.0166977;stroke-linecap:square;paint-order:stroke fill markers"
       id="use956"
       cx="55.374058"
       cy="-4.4548821"
       r="0.30820563"
       inkscape:tile-x0="2.9288885"
       inkscape:tile-y0="1.8682584" />
    <circle
       style="fill:#ffffff;stroke:#ffffff;stroke-width:0.0147942;stroke-linecap:square;paint-order:stroke fill markers"
       id="use1003"
       cx="91.423935"
       cy="-9.0443363"
       r="0.27307102"
       inkscape:tile-x0="2.9288885"
       inkscape:tile-y0="1.8682584" />
    <circle
       style="fill:#ffffff;stroke:#ffffff;stroke-width:0.0283538;stroke-linecap:square;paint-order:stroke fill markers"
       id="use1027"
       cx="104.68511"
       cy="-4.6788492"
       r="0.52335179"
       inkscape:tile-x0="2.9288885"
       inkscape:tile-y0="1.8682584" />
    <circle
       style="fill:#ffffff;stroke:#ffffff;stroke-width:0.0196681;stroke-linecap:square;paint-order:stroke fill markers"
       id="use1051"
       cx="135.5119"
       cy="-3.0207844"
       r="0.36303198"
       inkscape:tile-x0="2.9288885"
       inkscape:tile-y0="1.8682584" />
    <circle
       style="fill:#ffffff;stroke:#ffffff;stroke-width:0.0261048;stroke-linecap:square;paint-order:stroke fill markers"
       id="use1052"
       cx="136.26958"
       cy="-5.1349826"
       r="0.48184061"
       inkscape:tile-x0="2.9288885"
       inkscape:tile-y0="1.8682584" />
    <circle
       style="fill:#ffffff;stroke:#ffffff;stroke-width:0.0249056;stroke-linecap:square;paint-order:stroke fill markers"
       id="use1122"
       cx="188.94206"
       cy="-5.3910356"
       r="0.45970619"
       inkscape:tile-x0="2.9288885"
       inkscape:tile-y0="1.8682584" />
    <circle
       style="fill:#ffffff;stroke:#ffffff;stroke-width:0.010002;stroke-linecap:square;paint-order:stroke fill markers"
       id="use1170"
       cx="238.82254"
       cy="-4.5622764"
       r="0.18461677"
       inkscape:tile-x0="2.9288885"
       inkscape:tile-y0="1.8682584" />
    <circle
       style="fill:#ffffff;stroke:#ffffff;stroke-width:0.0206737;stroke-linecap:square;paint-order:stroke fill markers"
       id="use1214"
       cx="275.60217"
       cy="-10.417647"
       r="0.38159418"
       inkscape:tile-x0="2.9288885"
       inkscape:tile-y0="1.8682584" />
    <circle
       style="fill:#ffffff;stroke:#ffffff;stroke-width:0.0154692;stroke-linecap:square;paint-order:stroke fill markers"
       id="use1389"
       cx="461.14697"
       cy="-7.5617046"
       r="0.2855292"
       inkscape:tile-x0="2.9288885"
       inkscape:tile-y0="1.8682584" />
    <circle
       style="fill:#ffffff;stroke:#ffffff;stroke-width:0.013177;stroke-linecap:square;paint-order:stroke fill markers"
       id="use1407"
       cx="484.24857"
       cy="-6.506608"
       r="0.24321941"
       inkscape:tile-x0="2.9288885"
       inkscape:tile-y0="1.8682584" />
    <circle
       style="fill:#ffffff;stroke:#ffffff;stroke-width:0.00306907;stroke-linecap:square;paint-order:stroke fill markers"
       id="use1426"
       cx="486.73578"
       cy="-9.9531355"
       r="0.056648578"
       inkscape:tile-x0="2.9288885"
       inkscape:tile-y0="1.8682584" />
    <circle
       style="fill:#ffffff;stroke:#ffffff;stroke-width:0.0148141;stroke-linecap:square;paint-order:stroke fill markers"
       id="use1445"
       cx="518.6377"
       cy="-7.7593737"
       r="0.27343673"
       inkscape:tile-x0="2.9288885"
       inkscape:tile-y0="1.8682584" />
    <circle
       style="fill:#ffffff;stroke:#ffffff;stroke-width:3.56546e-05;stroke-linecap:square;paint-order:stroke fill markers"
       id="use1465"
       cx="542.74841"
       cy="-10.936757"
       r="0.00065810955"
       inkscape:tile-x0="2.9288885"
       inkscape:tile-y0="1.8682584" />
    <circle
       style="fill:#ffffff;stroke:#ffffff;stroke-width:0.0104939;stroke-linecap:square;paint-order:stroke fill markers"
       id="use1483"
       cx="553.59363"
       cy="-11.635522"
       r="0.1936962"
       inkscape:tile-x0="2.9288885"
       inkscape:tile-y0="1.8682584" />
    <circle
       style="fill:#ffffff;stroke:#ffffff;stroke-width:0.0202072;stroke-linecap:square;paint-order:stroke fill markers"
       id="use1503"
       cx="585.3924"
       cy="-8.0491753"
       r="0.37298346"
       inkscape:tile-x0="2.9288885"
       inkscape:tile-y0="1.8682584" />
    <circle
       style="stroke-width:0.0607344;stroke-linecap:square;paint-order:stroke fill markers"
       id="circle1"
       cx="11.362989"
       cy="-44.869156"
       r="1.1210315"
       inkscape:tile-cx="17.169741"
       inkscape:tile-cy="17.169742"
       inkscape:tile-w="8.0369004"
       inkscape:tile-h="8.0369004"
       inkscape:tile-x0="13.15129"
       inkscape:tile-y0="13.151292" />
    <ellipse
       style="fill:#ffffff;stroke:#ffffff;stroke-width:0.121167;stroke-linecap:square;paint-order:stroke fill markers"
       id="use26"
       cx="8.7176657"
       cy="12.484593"
       inkscape:tile-x0="6.3550836"
       inkscape:tile-y0="12.446854"
       inkscape:tile-cx="7.4906654"
       inkscape:tile-cy="13.582435"
       inkscape:tile-w="2.2711635"
       inkscape:tile-h="2.2711635"
       rx="2.3019981"
       ry="2.1728404" />
    <circle
       style="fill:#ffffff;stroke:#ffffff;stroke-width:0.0264413;stroke-linecap:square;paint-order:stroke fill markers"
       id="use52"
       cx="23.607424"
       cy="-2.5138249"
       r="0.48805073"
       inkscape:tile-x0="2.9288885"
       inkscape:tile-y0="1.8682584" />
    <circle
       style="fill:#ffffff;stroke:#ffffff;stroke-width:0.0166977;stroke-linecap:square;paint-order:stroke fill markers"
       id="use75"
       cx="55.374058"
       cy="-4.4548821"
       r="0.30820563"
       inkscape:tile-x0="2.9288885"
       inkscape:tile-y0="1.8682584" />
    <circle
       style="fill:#ffffff;stroke:#ffffff;stroke-width:0.0147942;stroke-linecap:square;paint-order:stroke fill markers"
       id="use122"
       cx="91.423935"
       cy="-9.0443363"
       r="0.27307102"
       inkscape:tile-x0="2.9288885"
       inkscape:tile-y0="1.8682584" />
    <circle
       style="fill:#ffffff;stroke:#ffffff;stroke-width:0.0283538;stroke-linecap:square;paint-order:stroke fill markers"
       id="use146"
       cx="104.68511"
       cy="-4.6788492"
       r="0.52335179"
       inkscape:tile-x0="2.9288885"
       inkscape:tile-y0="1.8682584" />
    <circle
       style="fill:#ffffff;stroke:#ffffff;stroke-width:0.0196681;stroke-linecap:square;paint-order:stroke fill markers"
       id="use170"
       cx="135.5119"
       cy="-3.0207844"
       r="0.36303198"
       inkscape:tile-x0="2.9288885"
       inkscape:tile-y0="1.8682584" />
    <circle
       style="fill:#ffffff;stroke:#ffffff;stroke-width:0.0261048;stroke-linecap:square;paint-order:stroke fill markers"
       id="use171"
       cx="136.26958"
       cy="-5.1349826"
       r="0.48184061"
       inkscape:tile-x0="2.9288885"
       inkscape:tile-y0="1.8682584" />
    <circle
       style="fill:#ffffff;stroke:#ffffff;stroke-width:0.0249056;stroke-linecap:square;paint-order:stroke fill markers"
       id="use241"
       cx="188.94206"
       cy="-5.3910356"
       r="0.45970619"
       inkscape:tile-x0="2.9288885"
       inkscape:tile-y0="1.8682584" />
    <circle
       style="fill:#ffffff;stroke:#ffffff;stroke-width:0.010002;stroke-linecap:square;paint-order:stroke fill markers"
       id="use290"
       cx="238.82254"
       cy="-4.5622764"
       r="0.18461677"
       inkscape:tile-x0="2.9288885"
       inkscape:tile-y0="1.8682584" />
    <circle
       style="fill:#ffffff;stroke:#ffffff;stroke-width:0.0206737;stroke-linecap:square;paint-order:stroke fill markers"
       id="use334"
       cx="275.60217"
       cy="-10.417647"
       r="0.38159418"
       inkscape:tile-x0="2.9288885"
       inkscape:tile-y0="1.8682584" />
    <circle
       style="fill:#ffffff;stroke:#ffffff;stroke-width:0.0154692;stroke-linecap:square;paint-order:stroke fill markers"
       id="use509"
       cx="461.14697"
       cy="-7.5617046"
       r="0.2855292"
       inkscape:tile-x0="2.9288885"
       inkscape:tile-y0="1.8682584" />
    <circle
       style="fill:#ffffff;stroke:#ffffff;stroke-width:0.013177;stroke-linecap:square;paint-order:stroke fill markers"
       id="use527"
       cx="484.24857"
       cy="-6.506608"
       r="0.24321941"
       inkscape:tile-x0="2.9288885"
       inkscape:tile-y0="1.8682584" />
    <circle
       style="fill:#ffffff;stroke:#ffffff;stroke-width:0.00306907;stroke-linecap:square;paint-order:stroke fill markers"
       id="use546"
       cx="486.73578"
       cy="-9.9531355"
       r="0.056648578"
       inkscape:tile-x0="2.9288885"
       inkscape:tile-y0="1.8682584" />
    <circle
       style="fill:#ffffff;stroke:#ffffff;stroke-width:0.0148141;stroke-linecap:square;paint-order:stroke fill markers"
       id="use565"
       cx="518.6377"
       cy="-7.7593737"
       r="0.27343673"
       inkscape:tile-x0="2.9288885"
       inkscape:tile-y0="1.8682584" />
    <circle
       style="fill:#ffffff;stroke:#ffffff;stroke-width:3.56546e-05;stroke-linecap:square;paint-order:stroke fill markers"
       id="use585"
       cx="542.74841"
       cy="-10.936757"
       r="0.00065810955"
       inkscape:tile-x0="2.9288885"
       inkscape:tile-y0="1.8682584" />
    <circle
       style="fill:#ffffff;stroke:#ffffff;stroke-width:0.0104939;stroke-linecap:square;paint-order:stroke fill markers"
       id="use603"
       cx="553.59363"
       cy="-11.635522"
       r="0.1936962"
       inkscape:tile-x0="2.9288885"
       inkscape:tile-y0="1.8682584" />
    <circle
       style="fill:#ffffff;stroke:#ffffff;stroke-width:0.0202072;stroke-linecap:square;paint-order:stroke fill markers"
       id="use623"
       cx="585.3924"
       cy="-8.0491753"
       r="0.37298346"
       inkscape:tile-x0="2.9288885"
       inkscape:tile-y0="1.8682584" />
    <use
       x="0"
       y="0"
       inkscape:tiled-clone-of="#use26"
       xlink:href="#use26"
       transform="matrix(1.8330135,0,0,1.8330135,0.18815745,-5.275537)"
       id="use3658" />
    <use
       x="0"
       y="0"
       inkscape:tiled-clone-of="#use26"
       xlink:href="#use26"
       transform="matrix(1.7936181,0,0,1.7936181,204.02728,148.60421)"
       id="use3659" />
    <use
       x="0"
       y="0"
       inkscape:tiled-clone-of="#use26"
       xlink:href="#use26"
       transform="matrix(1.1744023,0,0,1.1744023,9.0116538,26.25168)"
       id="use3660" />
    <use
       x="0"
       y="0"
       inkscape:tiled-clone-of="#use26"
       xlink:href="#use26"
       transform="matrix(0.39601582,0,0,0.39601582,11.188261,51.058429)"
       id="use3661" />
    <use
       x="0"
       y="0"
       inkscape:tiled-clone-of="#use26"
       xlink:href="#use26"
       transform="matrix(0.26180079,0,0,0.26180079,12.614773,53.762346)"
       id="use3662" />
    <use
       x="0"
       y="0"
       inkscape:tiled-clone-of="#use26"
       xlink:href="#use26"
       transform="matrix(1.2276198,0,0,1.2276198,608.47353,146.53213)"
       id="use3663" />
    <use
       x="0"
       y="0"
       inkscape:tiled-clone-of="#use26"
       xlink:href="#use26"
       transform="matrix(0.92131261,0,0,0.92131261,525.46855,155.87364)"
       id="use3664" />
    <use
       x="0"
       y="0"
       inkscape:tiled-clone-of="#use26"
       xlink:href="#use26"
       transform="matrix(0.92888604,0,0,0.92888604,630.2041,162.01487)"
       id="use3665" />
    <use
       x="0"
       y="0"
       inkscape:tiled-clone-of="#use26"
       xlink:href="#use26"
       transform="matrix(1.4245918,0,0,1.4245918,-1.8674629,111.08029)"
       id="use3666" />
    <use
       x="0"
       y="0"
       inkscape:tiled-clone-of="#use26"
       xlink:href="#use26"
       transform="matrix(0.66989288,0,0,0.66989288,9.8334177,115.97925)"
       id="use3667" />
    <use
       x="0"
       y="0"
       inkscape:tiled-clone-of="#use26"
       xlink:href="#use26"
       transform="matrix(0.81890659,0,0,0.81890659,71.865168,2.2263954)"
       id="use3668" />
    <use
       x="0"
       y="0"
       inkscape:tiled-clone-of="#use26"
       xlink:href="#use26"
       transform="matrix(0.08579097,0,0,0.08579097,81.440654,24.102973)"
       id="use3669" />
    <use
       x="0"
       y="0"
       inkscape:tiled-clone-of="#use26"
       xlink:href="#use26"
       transform="matrix(1.7578338,0,0,1.7578338,385.70532,141.68591)"
       id="use3670" />
    <use
       x="0"
       y="0"
       inkscape:tiled-clone-of="#use26"
       xlink:href="#use26"
       transform="matrix(1.1432482,0,0,1.1432482,61.539313,46.465488)"
       id="use3671" />
    <use
       x="0"
       y="0"
       inkscape:tiled-clone-of="#use26"
       xlink:href="#use26"
       transform="matrix(0.25861554,0,0,0.25861554,602.82019,77.972889)"
       id="use3672" />
    <use
       x="0"
       y="0"
       inkscape:tiled-clone-of="#use26"
       xlink:href="#use26"
       transform="matrix(1.6430921,0,0,1.6430921,604.40983,62.225323)"
       id="use3673" />
    <use
       x="0"
       y="0"
       inkscape:tiled-clone-of="#use26"
       xlink:href="#use26"
       transform="matrix(1.3706196,0,0,1.3706196,594.06175,91.369947)"
       id="use3674" />
    <use
       x="0"
       y="0"
       inkscape:tiled-clone-of="#use26"
       xlink:href="#use26"
       transform="matrix(0.96267502,0,0,0.96267502,604.178,108.26574)"
       id="use3675" />
    <use
       x="0"
       y="0"
       inkscape:tiled-clone-of="#use26"
       xlink:href="#use26"
       transform="matrix(1.2648521,0,0,1.2648521,601.62594,101.67275)"
       id="use3676" />
    <use
       x="0"
       y="0"
       inkscape:tiled-clone-of="#use26"
       xlink:href="#use26"
       transform="matrix(1.2284393,0,0,1.2284393,142.24408,3.7320816)"
       id="use3677" />
    <use
       x="0"
       y="0"
       inkscape:tiled-clone-of="#use26"
       xlink:href="#use26"
       transform="matrix(0.73927851,0,0,0.73927851,142.90265,16.634178)"
       id="use3678" />
    <use
       x="0"
       y="0"
       inkscape:tiled-clone-of="#use26"
       xlink:href="#use26"
       transform="matrix(0.56150469,0,0,0.56150469,151.58008,32.378469)"
       id="use3679" />
    <use
       x="0"
       y="0"
       inkscape:tiled-clone-of="#use26"
       xlink:href="#use26"
       transform="matrix(1.6199429,0,0,1.6199429,137.04172,33.182271)"
       id="use3680" />
    <use
       x="0"
       y="0"
       inkscape:tiled-clone-of="#use26"
       xlink:href="#use26"
       transform="matrix(0.25115476,0,0,0.25115476,146.91566,78.456681)"
       id="use3681" />
    <use
       x="0"
       y="0"
       inkscape:tiled-clone-of="#use26"
       xlink:href="#use26"
       transform="matrix(1.0183647,0,0,1.0183647,150.27656,93.550861)"
       id="use3682" />
    <use
       x="0"
       y="0"
       inkscape:tiled-clone-of="#use26"
       xlink:href="#use26"
       transform="matrix(0.20028881,0,0,0.20028881,155.84325,122.31989)"
       id="use3683" />
    <use
       x="0"
       y="0"
       inkscape:tiled-clone-of="#use26"
       xlink:href="#use26"
       transform="matrix(0.55153927,0,0,0.55153927,141.66175,129.71603)"
       id="use3684" />
    <use
       x="0"
       y="0"
       inkscape:tiled-clone-of="#use26"
       xlink:href="#use26"
       transform="matrix(0.96007326,0,0,0.96007326,212.72733,-6.8359662)"
       id="use3685" />
    <use
       x="0"
       y="0"
       inkscape:tiled-clone-of="#use26"
       xlink:href="#use26"
       transform="matrix(1.3081422,0,0,1.3081422,215.48755,19.545552)"
       id="use3686" />
    <use
       x="0"
       y="0"
       inkscape:tiled-clone-of="#use26"
       xlink:href="#use26"
       transform="matrix(0.04704098,0,0,0.04704098,451.16133,-0.97264223)"
       id="use3687" />
    <use
       x="0"
       y="0"
       inkscape:tiled-clone-of="#use26"
       xlink:href="#use26"
       transform="matrix(1.4685864,0,0,1.4685864,446.77248,-5.5058382)"
       id="use3688" />
    <use
       x="0"
       y="0"
       inkscape:tiled-clone-of="#use26"
       xlink:href="#use26"
       transform="matrix(0.99998834,0,0,0.99998834,224.88007,100.30907)"
       id="use3689" />
    <use
       x="0"
       y="0"
       inkscape:tiled-clone-of="#use26"
       xlink:href="#use26"
       transform="matrix(0.10842742,0,0,0.10842742,220.37469,132.67595)"
       id="use3690" />
    <use
       x="0"
       y="0"
       inkscape:tiled-clone-of="#use26"
       xlink:href="#use26"
       transform="matrix(1.1571243,0,0,1.1571243,222.64103,117.06538)"
       id="use3691" />
    <use
       x="0"
       y="0"
       inkscape:tiled-clone-of="#use26"
       xlink:href="#use26"
       transform="matrix(0.21315994,0,0,0.21315994,279.05682,22.20482)"
       id="use3692" />
    <use
       x="0"
       y="0"
       inkscape:tiled-clone-of="#use26"
       xlink:href="#use26"
       transform="matrix(0.64546007,0,0,0.64546007,286.71748,31.171991)"
       id="use3693" />
    <use
       x="0"
       y="0"
       inkscape:tiled-clone-of="#use26"
       xlink:href="#use26"
       transform="matrix(1.1448688,0,0,1.1448688,271.21992,30.779617)"
       id="use3694" />
    <use
       x="0"
       y="0"
       inkscape:tiled-clone-of="#use26"
       xlink:href="#use26"
       transform="matrix(0.43304202,0,0,0.43304202,276.60824,69.969858)"
       id="use3695" />
    <use
       x="0"
       y="0"
       inkscape:tiled-clone-of="#use26"
       xlink:href="#use26"
       transform="matrix(0.4607063,0,0,0.4607063,287.9977,108.39355)"
       id="use3696" />
    <use
       x="0"
       y="0"
       inkscape:tiled-clone-of="#use26"
       xlink:href="#use26"
       transform="matrix(0.53661637,0,0,0.53661637,277.98518,121.5528)"
       id="use3697" />
    <use
       x="0"
       y="0"
       inkscape:tiled-clone-of="#use26"
       xlink:href="#use26"
       transform="matrix(0.28275853,0,0,0.28275853,298.37415,130.40035)"
       id="use3698" />
    <use
       x="0"
       y="0"
       inkscape:tiled-clone-of="#use26"
       xlink:href="#use26"
       transform="matrix(0.6275136,0,0,0.6275136,351.41339,4.4521269)"
       id="use3699" />
    <use
       x="0"
       y="0"
       inkscape:tiled-clone-of="#use26"
       xlink:href="#use26"
       transform="matrix(0.66704183,0,0,0.66704183,365.13694,42.800105)"
       id="use3700" />
    <use
       x="0"
       y="0"
       inkscape:tiled-clone-of="#use26"
       xlink:href="#use26"
       transform="matrix(1.1707763,0,0,1.1707763,341.7303,43.882137)"
       id="use3701" />
    <use
       x="0"
       y="0"
       inkscape:tiled-clone-of="#use26"
       xlink:href="#use26"
       transform="matrix(0.58558155,0,0,0.58558155,69.984858,114.45077)"
       id="use3702" />
    <use
       x="0"
       y="0"
       inkscape:tiled-clone-of="#use26"
       xlink:href="#use26"
       transform="matrix(0.76905957,0,0,0.76905957,51.509658,127.16252)"
       id="use3703" />
    <use
       x="0"
       y="0"
       inkscape:tiled-clone-of="#use26"
       xlink:href="#use26"
       transform="matrix(0.85867725,0,0,0.85867725,70.360428,136.05575)"
       id="use3704" />
    <use
       x="0"
       y="0"
       inkscape:tiled-clone-of="#use26"
       xlink:href="#use26"
       transform="matrix(0.1633116,0,0,0.1633116,366.16234,147.38966)"
       id="use3705" />
    <use
       x="0"
       y="0"
       inkscape:tiled-clone-of="#use26"
       xlink:href="#use26"
       transform="matrix(0.22029902,0,0,0.22029902,417.71268,19.286045)"
       id="use3706" />
    <use
       x="0"
       y="0"
       inkscape:tiled-clone-of="#use26"
       xlink:href="#use26"
       transform="matrix(0.22547557,0,0,0.22547557,431.55624,43.038337)"
       id="use3707" />
    <use
       x="0"
       y="0"
       inkscape:tiled-clone-of="#use26"
       xlink:href="#use26"
       transform="matrix(1.1475648,0,0,1.1475648,417.82298,47.075007)"
       id="use3708" />
    <use
       x="0"
       y="0"
       inkscape:tiled-clone-of="#use26"
       xlink:href="#use26"
       transform="matrix(0.04779909,0,0,0.04779909,441.02748,98.590762)"
       id="use3709" />
    <use
       x="0"
       y="0"
       inkscape:tiled-clone-of="#use26"
       xlink:href="#use26"
       transform="matrix(0.5188712,0,0,0.5188712,421.47031,97.636889)"
       id="use3710" />
    <use
       x="0"
       y="0"
       inkscape:tiled-clone-of="#use26"
       xlink:href="#use26"
       transform="matrix(0.20348596,0,0,0.20348596,423.73786,115.91357)"
       id="use3711" />
    <use
       x="0"
       y="0"
       inkscape:tiled-clone-of="#use26"
       xlink:href="#use26"
       transform="matrix(0.91726882,0,0,0.91726882,433.21455,126.39565)"
       id="use3712" />
    <use
       x="0"
       y="0"
       inkscape:tiled-clone-of="#use26"
       xlink:href="#use26"
       transform="matrix(1.298841,0,0,1.298841,496.52071,-3.7696237)"
       id="use3713" />
    <use
       x="0"
       y="0"
       inkscape:tiled-clone-of="#use26"
       xlink:href="#use26"
       transform="matrix(1.184485,0,0,1.184485,483.31716,25.43721)"
       id="use3714" />
    <use
       x="0"
       y="0"
       inkscape:tiled-clone-of="#use26"
       xlink:href="#use26"
       transform="matrix(0.26330273,0,0,0.26330273,504.57789,45.151263)"
       id="use3715" />
    <use
       x="0"
       y="0"
       inkscape:tiled-clone-of="#use26"
       xlink:href="#use26"
       transform="matrix(0.952134,0,0,0.952134,505.5604,61.272966)"
       id="use3716" />
    <use
       x="0"
       y="0"
       inkscape:tiled-clone-of="#use26"
       xlink:href="#use26"
       transform="matrix(0.73340665,0,0,0.73340665,504.52145,115.15344)"
       id="use3717" />
    <use
       x="0"
       y="0"
       inkscape:tiled-clone-of="#use26"
       xlink:href="#use26"
       transform="matrix(0.5789661,0,0,0.5789661,564.98402,22.521783)"
       id="use3718" />
    <use
       x="0"
       y="0"
       inkscape:tiled-clone-of="#use26"
       xlink:href="#use26"
       transform="matrix(0.91043935,0,0,0.91043935,561.76701,38.016236)"
       id="use3719" />
    <use
       x="0"
       y="0"
       inkscape:tiled-clone-of="#use26"
       xlink:href="#use26"
       transform="matrix(0.19417834,0,0,0.19417834,570.05861,58.344887)"
       id="use3720" />
    <use
       x="0"
       y="0"
       inkscape:tiled-clone-of="#use26"
       xlink:href="#use26"
       transform="matrix(0.25577777,0,0,0.25577777,572.59313,82.698231)"
       id="use3721" />
    <use
       x="0"
       y="0"
       inkscape:tiled-clone-of="#use26"
       xlink:href="#use26"
       transform="matrix(0.89115041,0,0,0.89115041,567.00719,80.104319)"
       id="use3722" />
    <use
       x="0"
       y="0"
       inkscape:tiled-clone-of="#use26"
       xlink:href="#use26"
       transform="matrix(0.68826893,0,0,0.68826893,561.01843,104.95236)"
       id="use3723" />
    <use
       x="0"
       y="0"
       inkscape:tiled-clone-of="#use26"
       xlink:href="#use26"
       transform="matrix(0.5403297,0,0,0.5403297,580.66046,129.87833)"
       id="use3724" />
    <use
       x="0"
       y="0"
       inkscape:tiled-clone-of="#use26"
       xlink:href="#use26"
       transform="matrix(0.31251967,0,0,0.31251967,565.35696,141.01948)"
       id="use3725" />
    <use
       x="0"
       y="0"
       inkscape:tiled-clone-of="#use26"
       xlink:href="#use26"
       transform="matrix(0.16745226,0,0,0.16745226,641.61395,73.126056)"
       id="use3726" />
    <use
       x="0"
       y="0"
       inkscape:tiled-clone-of="#use26"
       xlink:href="#use26"
       transform="matrix(0.69272193,0,0,0.69272193,643.5895,68.152661)"
       id="use3727" />
    <use
       x="0"
       y="0"
       inkscape:tiled-clone-of="#use26"
       xlink:href="#use26"
       transform="matrix(0.47649875,0,0,0.47649875,633.88834,111.90402)"
       id="use3728" />
  </g>
</svg>
