{
	"asset":{
		"generator":"Khronos glTF Blender I/O v4.3.47",
		"version":"2.0"
	},
	"scene":0,
	"scenes":[
		{
			"name":"Scene",
			"nodes":[
				8
			]
		}
	],
	"nodes":[
		{
			"name":"\u30dc\u30fc\u30f3",
			"translation":[
				0,
				-0.32287871837615967,
				0
			]
		},
		{
			"name":"\u30dc\u30fc\u30f3.001",
			"rotation":[
				1,
				0,
				0,
				0
			],
			"translation":[
				0.4343567490577698,
				0.20435023307800293,
				0.09950051456689835
			]
		},
		{
			"name":"\u30dc\u30fc\u30f3.002",
			"rotation":[
				1,
				0,
				0,
				0
			],
			"translation":[
				-0.4348032772541046,
				0.20435023307800293,
				0.09950051456689835
			]
		},
		{
			"name":"\u30dc\u30fc\u30f3.003",
			"rotation":[
				0,
				0.7071067690849304,
				0.7071067690849304,
				0
			],
			"translation":[
				-0.20153337717056274,
				-0.42986413836479187,
				-0.05834783986210823
			]
		},
		{
			"name":"\u30dc\u30fc\u30f3.004",
			"rotation":[
				0,
				0.7071067690849304,
				0.7071067690849304,
				0
			],
			"translation":[
				0.205380380153656,
				-0.42986413836479187,
				-0.05834783986210823
			]
		},
		{
			"name":"\u30dc\u30fc\u30f3.005",
			"translation":[
				0,
				0.3661794662475586,
				0
			]
		},
		{
			"mesh":0,
			"name":"Arm",
			"skin":0
		},
		{
			"mesh":1,
			"name":"Arm.007",
			"skin":0
		},
		{
			"children":[
				6,
				7,
				0,
				1,
				2,
				3,
				4,
				5
			],
			"name":"\u30a2\u30fc\u30de\u30c1\u30e5\u30a2"
		}
	],
	"animations":[
		{
			"channels":[
				{
					"sampler":0,
					"target":{
						"node":0,
						"path":"translation"
					}
				},
				{
					"sampler":1,
					"target":{
						"node":0,
						"path":"rotation"
					}
				},
				{
					"sampler":2,
					"target":{
						"node":0,
						"path":"scale"
					}
				},
				{
					"sampler":3,
					"target":{
						"node":1,
						"path":"translation"
					}
				},
				{
					"sampler":4,
					"target":{
						"node":1,
						"path":"rotation"
					}
				},
				{
					"sampler":5,
					"target":{
						"node":1,
						"path":"scale"
					}
				},
				{
					"sampler":6,
					"target":{
						"node":2,
						"path":"translation"
					}
				},
				{
					"sampler":7,
					"target":{
						"node":2,
						"path":"rotation"
					}
				},
				{
					"sampler":8,
					"target":{
						"node":2,
						"path":"scale"
					}
				},
				{
					"sampler":9,
					"target":{
						"node":3,
						"path":"translation"
					}
				},
				{
					"sampler":10,
					"target":{
						"node":3,
						"path":"rotation"
					}
				},
				{
					"sampler":11,
					"target":{
						"node":3,
						"path":"scale"
					}
				},
				{
					"sampler":12,
					"target":{
						"node":4,
						"path":"translation"
					}
				},
				{
					"sampler":13,
					"target":{
						"node":4,
						"path":"rotation"
					}
				},
				{
					"sampler":14,
					"target":{
						"node":4,
						"path":"scale"
					}
				},
				{
					"sampler":15,
					"target":{
						"node":5,
						"path":"translation"
					}
				},
				{
					"sampler":16,
					"target":{
						"node":5,
						"path":"rotation"
					}
				},
				{
					"sampler":17,
					"target":{
						"node":5,
						"path":"scale"
					}
				}
			],
			"name":"Falling",
			"samplers":[
				{
					"input":15,
					"interpolation":"STEP",
					"output":16
				},
				{
					"input":15,
					"interpolation":"STEP",
					"output":17
				},
				{
					"input":15,
					"interpolation":"STEP",
					"output":18
				},
				{
					"input":15,
					"interpolation":"STEP",
					"output":19
				},
				{
					"input":20,
					"interpolation":"LINEAR",
					"output":21
				},
				{
					"input":15,
					"interpolation":"STEP",
					"output":22
				},
				{
					"input":15,
					"interpolation":"STEP",
					"output":23
				},
				{
					"input":20,
					"interpolation":"LINEAR",
					"output":24
				},
				{
					"input":15,
					"interpolation":"STEP",
					"output":25
				},
				{
					"input":15,
					"interpolation":"STEP",
					"output":26
				},
				{
					"input":20,
					"interpolation":"LINEAR",
					"output":27
				},
				{
					"input":15,
					"interpolation":"STEP",
					"output":28
				},
				{
					"input":15,
					"interpolation":"STEP",
					"output":29
				},
				{
					"input":20,
					"interpolation":"LINEAR",
					"output":30
				},
				{
					"input":15,
					"interpolation":"STEP",
					"output":31
				},
				{
					"input":15,
					"interpolation":"STEP",
					"output":32
				},
				{
					"input":20,
					"interpolation":"LINEAR",
					"output":33
				},
				{
					"input":15,
					"interpolation":"STEP",
					"output":34
				}
			]
		},
		{
			"channels":[
				{
					"sampler":0,
					"target":{
						"node":0,
						"path":"translation"
					}
				},
				{
					"sampler":1,
					"target":{
						"node":0,
						"path":"rotation"
					}
				},
				{
					"sampler":2,
					"target":{
						"node":0,
						"path":"scale"
					}
				},
				{
					"sampler":3,
					"target":{
						"node":1,
						"path":"translation"
					}
				},
				{
					"sampler":4,
					"target":{
						"node":1,
						"path":"rotation"
					}
				},
				{
					"sampler":5,
					"target":{
						"node":1,
						"path":"scale"
					}
				},
				{
					"sampler":6,
					"target":{
						"node":2,
						"path":"translation"
					}
				},
				{
					"sampler":7,
					"target":{
						"node":2,
						"path":"rotation"
					}
				},
				{
					"sampler":8,
					"target":{
						"node":2,
						"path":"scale"
					}
				},
				{
					"sampler":9,
					"target":{
						"node":3,
						"path":"translation"
					}
				},
				{
					"sampler":10,
					"target":{
						"node":3,
						"path":"rotation"
					}
				},
				{
					"sampler":11,
					"target":{
						"node":3,
						"path":"scale"
					}
				},
				{
					"sampler":12,
					"target":{
						"node":4,
						"path":"translation"
					}
				},
				{
					"sampler":13,
					"target":{
						"node":4,
						"path":"rotation"
					}
				},
				{
					"sampler":14,
					"target":{
						"node":4,
						"path":"scale"
					}
				},
				{
					"sampler":15,
					"target":{
						"node":5,
						"path":"translation"
					}
				},
				{
					"sampler":16,
					"target":{
						"node":5,
						"path":"rotation"
					}
				},
				{
					"sampler":17,
					"target":{
						"node":5,
						"path":"scale"
					}
				}
			],
			"name":"Flustered",
			"samplers":[
				{
					"input":35,
					"interpolation":"STEP",
					"output":36
				},
				{
					"input":35,
					"interpolation":"STEP",
					"output":37
				},
				{
					"input":35,
					"interpolation":"STEP",
					"output":38
				},
				{
					"input":35,
					"interpolation":"STEP",
					"output":39
				},
				{
					"input":40,
					"interpolation":"LINEAR",
					"output":41
				},
				{
					"input":35,
					"interpolation":"STEP",
					"output":42
				},
				{
					"input":35,
					"interpolation":"STEP",
					"output":43
				},
				{
					"input":40,
					"interpolation":"LINEAR",
					"output":44
				},
				{
					"input":35,
					"interpolation":"STEP",
					"output":45
				},
				{
					"input":35,
					"interpolation":"STEP",
					"output":46
				},
				{
					"input":40,
					"interpolation":"LINEAR",
					"output":47
				},
				{
					"input":35,
					"interpolation":"STEP",
					"output":48
				},
				{
					"input":35,
					"interpolation":"STEP",
					"output":49
				},
				{
					"input":40,
					"interpolation":"LINEAR",
					"output":50
				},
				{
					"input":35,
					"interpolation":"STEP",
					"output":51
				},
				{
					"input":40,
					"interpolation":"LINEAR",
					"output":52
				},
				{
					"input":40,
					"interpolation":"LINEAR",
					"output":53
				},
				{
					"input":35,
					"interpolation":"STEP",
					"output":54
				}
			]
		},
		{
			"channels":[
				{
					"sampler":0,
					"target":{
						"node":0,
						"path":"translation"
					}
				},
				{
					"sampler":1,
					"target":{
						"node":0,
						"path":"rotation"
					}
				},
				{
					"sampler":2,
					"target":{
						"node":0,
						"path":"scale"
					}
				},
				{
					"sampler":3,
					"target":{
						"node":1,
						"path":"translation"
					}
				},
				{
					"sampler":4,
					"target":{
						"node":1,
						"path":"rotation"
					}
				},
				{
					"sampler":5,
					"target":{
						"node":1,
						"path":"scale"
					}
				},
				{
					"sampler":6,
					"target":{
						"node":2,
						"path":"translation"
					}
				},
				{
					"sampler":7,
					"target":{
						"node":2,
						"path":"rotation"
					}
				},
				{
					"sampler":8,
					"target":{
						"node":2,
						"path":"scale"
					}
				},
				{
					"sampler":9,
					"target":{
						"node":3,
						"path":"translation"
					}
				},
				{
					"sampler":10,
					"target":{
						"node":3,
						"path":"rotation"
					}
				},
				{
					"sampler":11,
					"target":{
						"node":3,
						"path":"scale"
					}
				},
				{
					"sampler":12,
					"target":{
						"node":4,
						"path":"translation"
					}
				},
				{
					"sampler":13,
					"target":{
						"node":4,
						"path":"rotation"
					}
				},
				{
					"sampler":14,
					"target":{
						"node":4,
						"path":"scale"
					}
				},
				{
					"sampler":15,
					"target":{
						"node":5,
						"path":"translation"
					}
				},
				{
					"sampler":16,
					"target":{
						"node":5,
						"path":"rotation"
					}
				},
				{
					"sampler":17,
					"target":{
						"node":5,
						"path":"scale"
					}
				}
			],
			"name":"\u30a2\u30fc\u30de\u30c1\u30e5\u30a2",
			"samplers":[
				{
					"input":55,
					"interpolation":"STEP",
					"output":56
				},
				{
					"input":55,
					"interpolation":"STEP",
					"output":57
				},
				{
					"input":55,
					"interpolation":"STEP",
					"output":58
				},
				{
					"input":55,
					"interpolation":"STEP",
					"output":59
				},
				{
					"input":55,
					"interpolation":"STEP",
					"output":60
				},
				{
					"input":55,
					"interpolation":"STEP",
					"output":61
				},
				{
					"input":55,
					"interpolation":"STEP",
					"output":62
				},
				{
					"input":55,
					"interpolation":"STEP",
					"output":63
				},
				{
					"input":55,
					"interpolation":"STEP",
					"output":64
				},
				{
					"input":55,
					"interpolation":"STEP",
					"output":65
				},
				{
					"input":55,
					"interpolation":"STEP",
					"output":66
				},
				{
					"input":55,
					"interpolation":"STEP",
					"output":67
				},
				{
					"input":55,
					"interpolation":"STEP",
					"output":68
				},
				{
					"input":55,
					"interpolation":"STEP",
					"output":69
				},
				{
					"input":55,
					"interpolation":"STEP",
					"output":70
				},
				{
					"input":55,
					"interpolation":"LINEAR",
					"output":71
				},
				{
					"input":55,
					"interpolation":"LINEAR",
					"output":72
				},
				{
					"input":55,
					"interpolation":"LINEAR",
					"output":73
				}
			]
		}
	],
	"materials":[
		{
			"alphaMode":"BLEND",
			"doubleSided":true,
			"name":"Material",
			"pbrMetallicRoughness":{
				"baseColorTexture":{
					"index":0
				},
				"metallicFactor":0,
				"roughnessFactor":0.5
			}
		}
	],
	"meshes":[
		{
			"name":"\u7acb\u65b9\u4f53.001",
			"primitives":[
				{
					"attributes":{
						"POSITION":0,
						"NORMAL":1,
						"TEXCOORD_0":2,
						"TEXCOORD_1":3,
						"JOINTS_0":4,
						"WEIGHTS_0":5
					},
					"indices":6,
					"material":0
				}
			]
		},
		{
			"name":"\u7acb\u65b9\u4f53.012",
			"primitives":[
				{
					"attributes":{
						"POSITION":8,
						"NORMAL":9,
						"TEXCOORD_0":10,
						"TEXCOORD_1":11,
						"JOINTS_0":12,
						"WEIGHTS_0":13
					},
					"indices":14,
					"material":0
				}
			]
		}
	],
	"textures":[
		{
			"sampler":0,
			"source":0
		}
	],
	"images":[
		{
			"mimeType":"image/png",
			"name":"ParentKoala",
			"uri":"ParentKoala.png"
		}
	],
	"skins":[
		{
			"inverseBindMatrices":7,
			"joints":[
				0,
				1,
				2,
				3,
				4,
				5
			],
			"name":"\u30a2\u30fc\u30de\u30c1\u30e5\u30a2"
		}
	],
	"accessors":[
		{
			"bufferView":0,
			"componentType":5126,
			"count":350,
			"max":[
				0.49190011620521545,
				0.8224679231643677,
				0.3320508301258087
			],
			"min":[
				-0.49190011620521545,
				-0.5081058740615845,
				-0.41997525095939636
			],
			"type":"VEC3"
		},
		{
			"bufferView":1,
			"componentType":5126,
			"count":350,
			"type":"VEC3"
		},
		{
			"bufferView":2,
			"componentType":5126,
			"count":350,
			"type":"VEC2"
		},
		{
			"bufferView":3,
			"componentType":5126,
			"count":350,
			"type":"VEC2"
		},
		{
			"bufferView":4,
			"componentType":5121,
			"count":350,
			"type":"VEC4"
		},
		{
			"bufferView":5,
			"componentType":5126,
			"count":350,
			"type":"VEC4"
		},
		{
			"bufferView":6,
			"componentType":5123,
			"count":672,
			"type":"SCALAR"
		},
		{
			"bufferView":7,
			"componentType":5126,
			"count":6,
			"type":"MAT4"
		},
		{
			"bufferView":8,
			"componentType":5126,
			"count":130,
			"max":[
				0.3539193868637085,
				0.9276300668716431,
				0.3196488916873932
			],
			"min":[
				-0.3539193868637085,
				0.2973131835460663,
				-0.3196488916873932
			],
			"type":"VEC3"
		},
		{
			"bufferView":9,
			"componentType":5126,
			"count":130,
			"type":"VEC3"
		},
		{
			"bufferView":10,
			"componentType":5126,
			"count":130,
			"type":"VEC2"
		},
		{
			"bufferView":11,
			"componentType":5126,
			"count":130,
			"type":"VEC2"
		},
		{
			"bufferView":12,
			"componentType":5121,
			"count":130,
			"type":"VEC4"
		},
		{
			"bufferView":13,
			"componentType":5126,
			"count":130,
			"type":"VEC4"
		},
		{
			"bufferView":14,
			"componentType":5123,
			"count":180,
			"type":"SCALAR"
		},
		{
			"bufferView":15,
			"componentType":5126,
			"count":2,
			"max":[
				2.8333333333333335
			],
			"min":[
				0
			],
			"type":"SCALAR"
		},
		{
			"bufferView":16,
			"componentType":5126,
			"count":2,
			"type":"VEC3"
		},
		{
			"bufferView":17,
			"componentType":5126,
			"count":2,
			"type":"VEC4"
		},
		{
			"bufferView":18,
			"componentType":5126,
			"count":2,
			"type":"VEC3"
		},
		{
			"bufferView":19,
			"componentType":5126,
			"count":2,
			"type":"VEC3"
		},
		{
			"bufferView":20,
			"componentType":5126,
			"count":69,
			"max":[
				2.8333333333333335
			],
			"min":[
				0
			],
			"type":"SCALAR"
		},
		{
			"bufferView":21,
			"componentType":5126,
			"count":69,
			"type":"VEC4"
		},
		{
			"bufferView":22,
			"componentType":5126,
			"count":2,
			"type":"VEC3"
		},
		{
			"bufferView":23,
			"componentType":5126,
			"count":2,
			"type":"VEC3"
		},
		{
			"bufferView":24,
			"componentType":5126,
			"count":69,
			"type":"VEC4"
		},
		{
			"bufferView":25,
			"componentType":5126,
			"count":2,
			"type":"VEC3"
		},
		{
			"bufferView":26,
			"componentType":5126,
			"count":2,
			"type":"VEC3"
		},
		{
			"bufferView":27,
			"componentType":5126,
			"count":69,
			"type":"VEC4"
		},
		{
			"bufferView":28,
			"componentType":5126,
			"count":2,
			"type":"VEC3"
		},
		{
			"bufferView":29,
			"componentType":5126,
			"count":2,
			"type":"VEC3"
		},
		{
			"bufferView":30,
			"componentType":5126,
			"count":69,
			"type":"VEC4"
		},
		{
			"bufferView":31,
			"componentType":5126,
			"count":2,
			"type":"VEC3"
		},
		{
			"bufferView":32,
			"componentType":5126,
			"count":2,
			"type":"VEC3"
		},
		{
			"bufferView":33,
			"componentType":5126,
			"count":69,
			"type":"VEC4"
		},
		{
			"bufferView":34,
			"componentType":5126,
			"count":2,
			"type":"VEC3"
		},
		{
			"bufferView":35,
			"componentType":5126,
			"count":2,
			"max":[
				0.625
			],
			"min":[
				0
			],
			"type":"SCALAR"
		},
		{
			"bufferView":36,
			"componentType":5126,
			"count":2,
			"type":"VEC3"
		},
		{
			"bufferView":37,
			"componentType":5126,
			"count":2,
			"type":"VEC4"
		},
		{
			"bufferView":38,
			"componentType":5126,
			"count":2,
			"type":"VEC3"
		},
		{
			"bufferView":39,
			"componentType":5126,
			"count":2,
			"type":"VEC3"
		},
		{
			"bufferView":40,
			"componentType":5126,
			"count":16,
			"max":[
				0.625
			],
			"min":[
				0
			],
			"type":"SCALAR"
		},
		{
			"bufferView":41,
			"componentType":5126,
			"count":16,
			"type":"VEC4"
		},
		{
			"bufferView":42,
			"componentType":5126,
			"count":2,
			"type":"VEC3"
		},
		{
			"bufferView":43,
			"componentType":5126,
			"count":2,
			"type":"VEC3"
		},
		{
			"bufferView":44,
			"componentType":5126,
			"count":16,
			"type":"VEC4"
		},
		{
			"bufferView":45,
			"componentType":5126,
			"count":2,
			"type":"VEC3"
		},
		{
			"bufferView":46,
			"componentType":5126,
			"count":2,
			"type":"VEC3"
		},
		{
			"bufferView":47,
			"componentType":5126,
			"count":16,
			"type":"VEC4"
		},
		{
			"bufferView":48,
			"componentType":5126,
			"count":2,
			"type":"VEC3"
		},
		{
			"bufferView":49,
			"componentType":5126,
			"count":2,
			"type":"VEC3"
		},
		{
			"bufferView":50,
			"componentType":5126,
			"count":16,
			"type":"VEC4"
		},
		{
			"bufferView":51,
			"componentType":5126,
			"count":2,
			"type":"VEC3"
		},
		{
			"bufferView":52,
			"componentType":5126,
			"count":16,
			"type":"VEC3"
		},
		{
			"bufferView":53,
			"componentType":5126,
			"count":16,
			"type":"VEC4"
		},
		{
			"bufferView":54,
			"componentType":5126,
			"count":2,
			"type":"VEC3"
		},
		{
			"bufferView":55,
			"componentType":5126,
			"count":1,
			"max":[
				0.041666666666666664
			],
			"min":[
				0.041666666666666664
			],
			"type":"SCALAR"
		},
		{
			"bufferView":56,
			"componentType":5126,
			"count":1,
			"type":"VEC3"
		},
		{
			"bufferView":57,
			"componentType":5126,
			"count":1,
			"type":"VEC4"
		},
		{
			"bufferView":58,
			"componentType":5126,
			"count":1,
			"type":"VEC3"
		},
		{
			"bufferView":59,
			"componentType":5126,
			"count":1,
			"type":"VEC3"
		},
		{
			"bufferView":60,
			"componentType":5126,
			"count":1,
			"type":"VEC4"
		},
		{
			"bufferView":61,
			"componentType":5126,
			"count":1,
			"type":"VEC3"
		},
		{
			"bufferView":62,
			"componentType":5126,
			"count":1,
			"type":"VEC3"
		},
		{
			"bufferView":63,
			"componentType":5126,
			"count":1,
			"type":"VEC4"
		},
		{
			"bufferView":64,
			"componentType":5126,
			"count":1,
			"type":"VEC3"
		},
		{
			"bufferView":65,
			"componentType":5126,
			"count":1,
			"type":"VEC3"
		},
		{
			"bufferView":66,
			"componentType":5126,
			"count":1,
			"type":"VEC4"
		},
		{
			"bufferView":67,
			"componentType":5126,
			"count":1,
			"type":"VEC3"
		},
		{
			"bufferView":68,
			"componentType":5126,
			"count":1,
			"type":"VEC3"
		},
		{
			"bufferView":69,
			"componentType":5126,
			"count":1,
			"type":"VEC4"
		},
		{
			"bufferView":70,
			"componentType":5126,
			"count":1,
			"type":"VEC3"
		},
		{
			"bufferView":71,
			"componentType":5126,
			"count":1,
			"type":"VEC3"
		},
		{
			"bufferView":72,
			"componentType":5126,
			"count":1,
			"type":"VEC4"
		},
		{
			"bufferView":73,
			"componentType":5126,
			"count":1,
			"type":"VEC3"
		}
	],
	"bufferViews":[
		{
			"buffer":0,
			"byteLength":4200,
			"byteOffset":0,
			"target":34962
		},
		{
			"buffer":0,
			"byteLength":4200,
			"byteOffset":4200,
			"target":34962
		},
		{
			"buffer":0,
			"byteLength":2800,
			"byteOffset":8400,
			"target":34962
		},
		{
			"buffer":0,
			"byteLength":2800,
			"byteOffset":11200,
			"target":34962
		},
		{
			"buffer":0,
			"byteLength":1400,
			"byteOffset":14000,
			"target":34962
		},
		{
			"buffer":0,
			"byteLength":5600,
			"byteOffset":15400,
			"target":34962
		},
		{
			"buffer":0,
			"byteLength":1344,
			"byteOffset":21000,
			"target":34963
		},
		{
			"buffer":0,
			"byteLength":384,
			"byteOffset":22344
		},
		{
			"buffer":0,
			"byteLength":1560,
			"byteOffset":22728,
			"target":34962
		},
		{
			"buffer":0,
			"byteLength":1560,
			"byteOffset":24288,
			"target":34962
		},
		{
			"buffer":0,
			"byteLength":1040,
			"byteOffset":25848,
			"target":34962
		},
		{
			"buffer":0,
			"byteLength":1040,
			"byteOffset":26888,
			"target":34962
		},
		{
			"buffer":0,
			"byteLength":520,
			"byteOffset":27928,
			"target":34962
		},
		{
			"buffer":0,
			"byteLength":2080,
			"byteOffset":28448,
			"target":34962
		},
		{
			"buffer":0,
			"byteLength":360,
			"byteOffset":30528,
			"target":34963
		},
		{
			"buffer":0,
			"byteLength":8,
			"byteOffset":30888
		},
		{
			"buffer":0,
			"byteLength":24,
			"byteOffset":30896
		},
		{
			"buffer":0,
			"byteLength":32,
			"byteOffset":30920
		},
		{
			"buffer":0,
			"byteLength":24,
			"byteOffset":30952
		},
		{
			"buffer":0,
			"byteLength":24,
			"byteOffset":30976
		},
		{
			"buffer":0,
			"byteLength":276,
			"byteOffset":31000
		},
		{
			"buffer":0,
			"byteLength":1104,
			"byteOffset":31276
		},
		{
			"buffer":0,
			"byteLength":24,
			"byteOffset":32380
		},
		{
			"buffer":0,
			"byteLength":24,
			"byteOffset":32404
		},
		{
			"buffer":0,
			"byteLength":1104,
			"byteOffset":32428
		},
		{
			"buffer":0,
			"byteLength":24,
			"byteOffset":33532
		},
		{
			"buffer":0,
			"byteLength":24,
			"byteOffset":33556
		},
		{
			"buffer":0,
			"byteLength":1104,
			"byteOffset":33580
		},
		{
			"buffer":0,
			"byteLength":24,
			"byteOffset":34684
		},
		{
			"buffer":0,
			"byteLength":24,
			"byteOffset":34708
		},
		{
			"buffer":0,
			"byteLength":1104,
			"byteOffset":34732
		},
		{
			"buffer":0,
			"byteLength":24,
			"byteOffset":35836
		},
		{
			"buffer":0,
			"byteLength":24,
			"byteOffset":35860
		},
		{
			"buffer":0,
			"byteLength":1104,
			"byteOffset":35884
		},
		{
			"buffer":0,
			"byteLength":24,
			"byteOffset":36988
		},
		{
			"buffer":0,
			"byteLength":8,
			"byteOffset":37012
		},
		{
			"buffer":0,
			"byteLength":24,
			"byteOffset":37020
		},
		{
			"buffer":0,
			"byteLength":32,
			"byteOffset":37044
		},
		{
			"buffer":0,
			"byteLength":24,
			"byteOffset":37076
		},
		{
			"buffer":0,
			"byteLength":24,
			"byteOffset":37100
		},
		{
			"buffer":0,
			"byteLength":64,
			"byteOffset":37124
		},
		{
			"buffer":0,
			"byteLength":256,
			"byteOffset":37188
		},
		{
			"buffer":0,
			"byteLength":24,
			"byteOffset":37444
		},
		{
			"buffer":0,
			"byteLength":24,
			"byteOffset":37468
		},
		{
			"buffer":0,
			"byteLength":256,
			"byteOffset":37492
		},
		{
			"buffer":0,
			"byteLength":24,
			"byteOffset":37748
		},
		{
			"buffer":0,
			"byteLength":24,
			"byteOffset":37772
		},
		{
			"buffer":0,
			"byteLength":256,
			"byteOffset":37796
		},
		{
			"buffer":0,
			"byteLength":24,
			"byteOffset":38052
		},
		{
			"buffer":0,
			"byteLength":24,
			"byteOffset":38076
		},
		{
			"buffer":0,
			"byteLength":256,
			"byteOffset":38100
		},
		{
			"buffer":0,
			"byteLength":24,
			"byteOffset":38356
		},
		{
			"buffer":0,
			"byteLength":192,
			"byteOffset":38380
		},
		{
			"buffer":0,
			"byteLength":256,
			"byteOffset":38572
		},
		{
			"buffer":0,
			"byteLength":24,
			"byteOffset":38828
		},
		{
			"buffer":0,
			"byteLength":4,
			"byteOffset":38852
		},
		{
			"buffer":0,
			"byteLength":12,
			"byteOffset":38856
		},
		{
			"buffer":0,
			"byteLength":16,
			"byteOffset":38868
		},
		{
			"buffer":0,
			"byteLength":12,
			"byteOffset":38884
		},
		{
			"buffer":0,
			"byteLength":12,
			"byteOffset":38896
		},
		{
			"buffer":0,
			"byteLength":16,
			"byteOffset":38908
		},
		{
			"buffer":0,
			"byteLength":12,
			"byteOffset":38924
		},
		{
			"buffer":0,
			"byteLength":12,
			"byteOffset":38936
		},
		{
			"buffer":0,
			"byteLength":16,
			"byteOffset":38948
		},
		{
			"buffer":0,
			"byteLength":12,
			"byteOffset":38964
		},
		{
			"buffer":0,
			"byteLength":12,
			"byteOffset":38976
		},
		{
			"buffer":0,
			"byteLength":16,
			"byteOffset":38988
		},
		{
			"buffer":0,
			"byteLength":12,
			"byteOffset":39004
		},
		{
			"buffer":0,
			"byteLength":12,
			"byteOffset":39016
		},
		{
			"buffer":0,
			"byteLength":16,
			"byteOffset":39028
		},
		{
			"buffer":0,
			"byteLength":12,
			"byteOffset":39044
		},
		{
			"buffer":0,
			"byteLength":12,
			"byteOffset":39056
		},
		{
			"buffer":0,
			"byteLength":16,
			"byteOffset":39068
		},
		{
			"buffer":0,
			"byteLength":12,
			"byteOffset":39084
		}
	],
	"samplers":[
		{
			"magFilter":9729,
			"minFilter":9987
		}
	],
	"buffers":[
		{
			"byteLength":39096,
			"uri":"ParentKoala.bin"
		}
	]
}
