# Blender 4.3.2
# www.blender.org
mtllib ParentKoala.mtl
o Arm
v -0.356035 -0.248962 -0.167891
v -0.356035 0.237685 -0.167891
v -0.356035 -0.248962 -0.026058
v -0.356035 0.237685 -0.026058
v -0.491900 -0.248962 -0.167891
v -0.491900 0.237685 -0.167891
v -0.491900 -0.248962 -0.026058
v -0.491900 0.237685 -0.026058
v 0.356035 -0.248962 -0.167891
v 0.356035 -0.248962 -0.026058
v 0.356035 0.237685 -0.167891
v 0.491900 -0.248962 -0.167891
v 0.356035 0.237685 -0.026058
v 0.491900 0.237685 -0.026058
v 0.491900 -0.248962 -0.026058
v 0.491900 0.237685 -0.167891
v -0.189637 0.691251 0.163393
v -0.189637 0.544008 0.036465
v -0.189637 0.691251 0.036465
v 0.189637 0.691251 0.163393
v -0.189637 0.305189 0.163393
v -0.063212 0.691251 0.036465
v 0.063212 0.691251 0.036465
v 0.189637 0.305189 0.163393
v 0.063212 0.305189 -0.131149
v 0.189637 0.305189 -0.131149
v 0.189637 0.544008 0.036465
v 0.320854 0.544008 0.036465
v 0.189637 0.544008 -0.056597
v 0.189637 0.691251 0.036465
v 0.320854 0.544008 -0.056597
v 0.320854 0.822467 -0.056597
v 0.189637 0.691251 -0.056597
v 0.320854 0.822467 0.036465
v 0.063212 0.822467 0.036465
v 0.063212 0.822467 -0.056597
v 0.063212 0.691251 -0.056597
v 0.063212 0.691251 -0.131149
v -0.063212 0.691251 -0.056597
v 0.189637 0.691251 -0.131149
v 0.135735 0.617630 -0.131149
v 0.189637 0.544008 -0.131149
v 0.135735 0.544008 -0.131149
v 0.063212 0.544008 -0.131149
v 0.063212 0.617630 -0.131149
v 0.063212 0.544008 -0.216026
v -0.063212 0.544008 -0.131149
v 0.063212 0.305189 -0.216026
v -0.063212 0.305189 -0.216026
v -0.063212 0.544008 -0.216026
v -0.063212 0.305189 -0.131149
v -0.189637 0.305189 -0.131149
v -0.135735 0.544008 -0.131149
v -0.135735 0.617630 -0.131149
v -0.189637 0.544008 -0.131149
v -0.063212 0.617630 -0.131149
v -0.063212 0.691251 -0.131149
v -0.189637 0.691251 -0.131149
v -0.189637 0.691251 -0.056597
v -0.320854 0.822468 -0.056597
v -0.189637 0.544008 -0.056597
v -0.063212 0.822467 -0.056597
v -0.320854 0.544008 -0.056597
v -0.320854 0.544008 0.036465
v -0.320854 0.822468 0.036465
v -0.063212 0.822467 0.036465
v 0.356207 -0.367272 -0.262652
v 0.356207 -0.367272 0.232947
v 0.118736 -0.367272 -0.262652
v 0.356207 -0.202178 -0.262652
v 0.188998 -0.070732 -0.262652
v 0.356207 -0.202178 0.232947
v 0.118736 -0.202178 0.232947
v 0.356207 -0.037083 0.232947
v 0.118736 -0.037083 0.232947
v 0.118736 0.310818 0.232947
v -0.118736 -0.037083 0.232947
v -0.118736 0.310818 0.232947
v -0.356207 0.310818 0.232947
v -0.118736 0.310818 -0.262652
v 0.118736 0.310818 -0.262652
v -0.180834 0.199325 -0.262652
v 0.356207 0.310818 -0.262652
v 0.188998 0.199325 -0.262652
v 0.188998 0.199325 -0.332051
v 0.356207 -0.037083 -0.262652
v 0.188998 -0.070732 -0.332051
v -0.180834 -0.070732 -0.332051
v -0.180834 0.199325 -0.332051
v -0.180834 -0.070732 -0.262652
v -0.118736 -0.367272 -0.262652
v -0.356207 -0.202178 -0.262652
v -0.356207 -0.367272 -0.262652
v -0.356207 -0.037083 -0.262652
v -0.356207 -0.037083 0.232947
v -0.356207 0.310818 -0.262652
v -0.356207 -0.202178 0.232947
v -0.118736 -0.202178 0.232947
v -0.356207 -0.367272 0.232947
v -0.118736 -0.367272 0.232947
v 0.118736 -0.367272 0.232947
v 0.356207 0.310818 0.232947
v -0.112531 -0.508106 -0.295900
v -0.112531 -0.508106 0.083318
v -0.112531 -0.368536 -0.295900
v -0.289525 -0.508106 -0.295900
v -0.112531 -0.368536 0.083318
v -0.289525 -0.368536 0.083318
v -0.289525 -0.508106 0.083318
v -0.289525 -0.368536 -0.295900
v 0.112531 -0.508106 -0.295900
v 0.112531 -0.508106 0.083318
v 0.112531 -0.368536 -0.295900
v 0.289525 -0.508106 -0.295900
v 0.112531 -0.368536 0.083318
v 0.289525 -0.368536 0.083318
v 0.289525 -0.508106 0.083318
v 0.289525 -0.368536 -0.295900
v 0.269529 -0.352017 0.233088
v 0.269529 -0.352017 0.419975
v 0.269529 0.443564 0.233088
v -0.269529 -0.352017 0.233088
v 0.269529 0.443564 0.419975
v -0.269529 0.443564 0.419975
v -0.269529 -0.352017 0.419975
v -0.269529 0.443564 0.233088
vn -0.0000 1.0000 -0.0000
vn -0.0000 -0.0000 -1.0000
vn -0.0000 -0.0000 1.0000
vn -1.0000 -0.0000 -0.0000
vn -0.0000 -1.0000 -0.0000
vn 1.0000 -0.0000 -0.0000
vt 0.556195 0.243604
vt 0.527804 0.216408
vt 0.527804 0.243604
vt 0.583391 0.216408
vt 0.556195 0.118996
vt 0.556195 0.216408
vt 0.500608 0.118996
vt 0.500608 0.216408
vt 0.527804 0.118996
vt 0.527804 0.091799
vt 0.611782 0.216408
vt 0.583391 0.118996
vt 0.556195 0.091799
vt 0.611782 0.118996
vt 0.556041 0.119694
vt 0.527630 0.092478
vt 0.556041 0.092478
vt 0.611668 0.217175
vt 0.583257 0.119694
vt 0.611668 0.119694
vt 0.583257 0.217175
vt 0.527630 0.217175
vt 0.556041 0.244391
vt 0.527630 0.244391
vt 0.500415 0.217175
vt 0.500415 0.119694
vt 0.556041 0.217175
vt 0.527630 0.119694
vt 0.045221 0.901493
vt 0.043039 0.899456
vt 0.045651 0.898539
vt 0.043194 0.898473
vt 0.040478 0.899101
vt 0.042746 0.904932
vt 0.040397 0.903127
vt 0.038465 0.900772
vt 0.067233 0.935238
vt 0.041923 0.913986
vt 0.039963 0.905988
vt 0.037533 0.906305
vt 0.038170 0.905856
vt 0.039053 0.903794
vt 0.037436 0.908801
vt 0.036403 0.905705
vt 0.919313 0.707393
vt 0.871231 0.750241
vt 0.871231 0.707393
vt 0.036334 0.905872
vt 0.962161 0.750241
vt 0.037174 0.903094
vt 0.036255 0.900034
vt 0.036866 0.902090
vt 0.919313 0.666109
vt 0.962161 0.666109
vt 0.039045 0.896899
vt 0.033492 0.898808
vt 0.034338 0.903735
vt 0.036887 0.903751
vt 0.027573 0.905283
vt 0.033430 0.911465
vt 0.027933 0.915673
vt 0.027933 0.935238
vt 0.857876 0.655590
vt 0.833835 0.655590
vt 0.833835 0.631908
vt 0.031514 0.883737
vt 0.027511 0.897046
vt 0.022737 0.891935
vt 0.857876 0.631908
vt 0.929947 0.605090
vt 0.987695 0.637341
vt 0.900810 0.637341
vt 0.950937 0.609500
vt 0.982144 0.558050
vt 0.932018 0.585891
vt 0.953007 0.590302
vt 0.895259 0.558050
vt 0.072091 0.912034
vt 0.050619 0.889028
vt 0.064062 0.885031
vt 0.051650 0.898668
vt 0.833835 0.631907
vt 0.857876 0.655590
vt 0.833835 0.655590
vt 0.857876 0.631907
vt 0.048521 0.893212
vt 0.043391 0.889126
vt 0.036288 0.888848
vt 0.037686 0.893977
vt 0.042511 0.894523
vt 0.043029 0.896723
vt 0.047084 0.896190
vt 0.804598 0.725754
vt 0.756517 0.682906
vt 0.847447 0.682906
vt 0.847446 0.767038
vt 0.756517 0.725754
vt 0.804598 0.767038
vt 0.042342 0.896509
vt 0.045383 0.896625
vt 0.045380 0.896375
vt 0.042980 0.896818
vt 0.041386 0.897166
vt 0.041724 0.897617
vt 0.254885 0.487283
vt 0.254885 0.452172
vt 0.360285 0.452172
vt 0.410789 0.951396
vt 0.360285 0.951396
vt 0.360285 0.845996
vt 0.395846 0.515238
vt 0.410789 0.452172
vt 0.360285 0.487283
vt 0.360285 0.810884
vt 0.410789 0.810884
vt 0.410789 0.775773
vt 0.360285 0.775773
vt 0.254885 0.522395
vt 0.461293 0.701784
vt 0.410789 0.701784
vt 0.461293 0.775773
vt 0.511797 0.701784
vt 0.461293 0.596384
vt 0.410789 0.596384
vt 0.474500 0.572672
vt 0.395846 0.572672
vt 0.360285 0.596384
vt 0.080838 0.757007
vt 0.042006 0.861839
vt 0.051488 0.732255
vt 0.360285 0.522395
vt 0.069670 0.832591
vt 0.197278 0.861839
vt 0.179095 0.761503
vt 0.397507 0.573940
vt 0.476160 0.516506
vt 0.476160 0.573940
vt 0.397507 0.516506
vt 0.206760 0.732255
vt 0.167927 0.837087
vt 0.474499 0.515238
vt 0.511797 0.522395
vt 0.461293 0.452172
vt 0.511797 0.452172
vt 0.511797 0.487283
vt 0.511797 0.596384
vt 0.617197 0.487283
vt 0.617197 0.522395
vt 0.511797 0.775773
vt 0.511797 0.810884
vt 0.461293 0.810884
vt 0.461293 0.845996
vt 0.511797 0.845996
vt 0.617197 0.452172
vt 0.410789 0.845996
vt 0.511797 0.951396
vt 0.461293 0.951396
vt 0.617197 0.596384
vt 0.254885 0.596384
vt 0.360285 0.701784
vt 0.822268 0.130994
vt 0.822268 0.073197
vt 0.946100 0.073197
vt 0.946100 0.027621
vt 0.776691 0.176570
vt 0.822268 0.234367
vt 0.776691 0.234367
vt 0.822268 0.027621
vt 0.946100 0.176570
vt 0.946100 0.234367
vt 0.991676 0.234367
vt 0.991676 0.176570
vt 0.822268 0.176570
vt 0.946100 0.130994
vt 0.822268 0.130994
vt 0.946100 0.073197
vt 0.822268 0.073197
vt 0.946100 0.027621
vt 0.776692 0.176570
vt 0.776692 0.234367
vt 0.822268 0.234367
vt 0.822268 0.027621
vt 0.946100 0.176570
vt 0.946100 0.234367
vt 0.991677 0.234367
vt 0.822268 0.176570
vt 0.946100 0.130994
vt 0.991677 0.176570
vt 0.196999 0.269970
vt 0.196999 0.065249
vt 0.245089 0.065249
vt 0.058287 0.017159
vt 0.196999 0.017159
vt 0.245089 0.269970
vt 0.058287 0.522780
vt 0.196999 0.318060
vt 0.196999 0.522780
vt 0.058287 0.269970
vt 0.058287 0.065249
vt 0.010197 0.269970
vt 0.058287 0.318060
vt 0.010197 0.065249
s 0
usemtl Material
f 2/1/1 8/2/1 4/3/1
f 2/4/2 5/5/2 6/6/2
f 8/2/3 3/7/3 4/8/3
f 6/6/4 7/9/4 8/2/4
f 5/5/5 3/10/5 7/9/5
f 4/11/6 1/12/6 2/4/6
f 2/1/1 6/6/1 8/2/1
f 2/4/2 1/12/2 5/5/2
f 8/2/3 7/9/3 3/7/3
f 6/6/4 5/5/4 7/9/4
f 5/5/5 1/13/5 3/10/5
f 4/11/6 3/14/6 1/12/6
f 12/15/5 10/16/5 9/17/5
f 13/18/4 9/19/4 10/20/4
f 13/18/4 11/21/4 9/19/4
f 12/15/2 9/19/2 11/21/2
f 14/22/1 11/23/1 13/24/1
f 14/22/3 13/25/3 10/26/3
f 16/27/6 14/22/6 15/28/6
f 14/22/3 10/26/3 15/28/3
f 14/22/1 16/27/1 11/23/1
f 16/27/6 15/28/6 12/15/6
f 12/15/2 11/21/2 16/27/2
f 12/15/5 15/28/5 10/16/5
f 21/29/4 17/30/4 18/31/4
f 17/30/4 19/32/4 18/31/4
f 17/30/1 22/33/1 19/32/1
f 24/34/3 20/35/3 17/30/3
f 17/30/1 20/35/1 23/36/1
f 24/34/3 17/30/3 21/29/3
f 22/33/1 17/30/1 23/36/1
f 21/29/5 25/37/5 24/34/5
f 24/34/5 25/37/5 26/38/5
f 24/34/6 26/38/6 27/39/6
f 24/34/6 27/39/6 20/35/6
f 31/40/5 28/41/5 27/39/5
f 30/42/3 27/39/3 28/41/3
f 26/38/6 29/43/6 27/39/6
f 31/40/5 27/39/5 29/43/5
f 27/39/6 30/42/6 20/35/6
f 31/40/6 34/44/6 28/41/6
f 33/45/2 31/46/2 29/47/2
f 31/40/6 32/48/6 34/44/6
f 33/45/2 32/49/2 31/46/2
f 32/48/1 35/50/1 34/44/1
f 30/42/3 28/41/3 34/44/3
f 30/42/3 34/44/3 35/50/3
f 30/42/3 35/50/3 23/36/3
f 35/50/4 37/51/4 23/36/4
f 32/48/1 36/52/1 35/50/1
f 35/50/4 36/52/4 37/51/4
f 22/33/1 23/36/1 37/51/1
f 33/45/2 37/53/2 36/54/2
f 39/55/1 37/51/1 38/56/1
f 37/51/1 40/57/1 38/56/1
f 37/51/1 33/58/1 40/57/1
f 22/33/1 37/51/1 39/55/1
f 38/56/2 40/57/2 41/59/2
f 41/59/2 40/57/2 42/60/2
f 33/58/6 42/60/6 40/57/6
f 33/58/6 29/43/6 42/60/6
f 26/38/6 42/60/6 29/43/6
f 43/61/2 41/59/2 42/60/2
f 26/38/2 43/61/2 42/60/2
f 25/37/2 43/61/2 26/38/2
f 25/37/2 44/62/2 43/61/2
f 41/63/2 43/64/2 44/65/2
f 47/66/2 45/67/2 44/68/2
f 41/63/2 44/65/2 45/69/2
f 48/70/6 44/71/6 25/72/6
f 48/70/6 46/73/6 44/71/6
f 47/74/1 44/71/1 46/73/1
f 49/75/5 48/70/5 25/72/5
f 49/75/2 46/73/2 48/70/2
f 49/75/2 50/76/2 46/73/2
f 51/77/4 50/76/4 49/75/4
f 49/75/5 25/72/5 51/77/5
f 21/29/5 51/78/5 25/37/5
f 51/77/4 47/74/4 50/76/4
f 53/79/2 47/80/2 51/78/2
f 21/29/5 52/81/5 51/78/5
f 53/79/2 51/78/2 52/81/2
f 53/82/2 56/83/2 47/84/2
f 53/82/2 54/85/2 56/83/2
f 53/79/2 55/86/2 54/87/2
f 52/81/2 55/86/2 53/79/2
f 47/66/2 56/88/2 45/67/2
f 56/88/2 38/56/2 45/67/2
f 54/87/2 57/89/2 56/88/2
f 56/88/2 57/89/2 38/56/2
f 39/55/1 38/56/1 57/89/1
f 57/89/1 58/90/1 59/91/1
f 54/87/2 58/90/2 57/89/2
f 57/89/1 59/91/1 39/55/1
f 58/90/4 61/92/4 59/91/4
f 59/93/2 63/94/2 60/95/2
f 59/93/2 60/95/2 62/96/2
f 59/93/2 61/97/2 63/94/2
f 59/93/2 62/96/2 39/98/2
f 60/99/4 63/100/4 64/101/4
f 61/92/5 64/101/5 63/100/5
f 19/32/3 65/102/3 64/101/3
f 60/99/4 64/101/4 65/102/4
f 61/92/5 18/31/5 64/101/5
f 19/32/3 64/101/3 18/31/3
f 62/103/1 60/99/1 65/102/1
f 19/32/3 66/104/3 65/102/3
f 62/103/1 65/102/1 66/104/1
f 22/33/6 62/103/6 66/104/6
f 19/32/3 22/33/3 66/104/3
f 22/33/6 39/55/6 62/103/6
f 58/90/4 55/86/4 61/92/4
f 52/81/4 61/92/4 55/86/4
f 18/31/4 61/92/4 52/81/4
f 55/86/2 58/90/2 54/87/2
f 21/29/4 18/31/4 52/81/4
f 47/74/1 46/73/1 50/76/1
f 38/56/2 41/59/2 45/67/2
f 33/45/2 36/54/2 32/49/2
f 20/35/1 30/42/1 23/36/1
f 72/105/6 68/106/6 67/107/6
f 69/108/5 67/109/5 68/110/5
f 71/111/2 67/107/2 69/112/2
f 71/111/2 70/113/2 67/107/2
f 72/105/6 67/107/6 70/113/6
f 68/110/3 72/114/3 73/115/3
f 72/114/3 75/116/3 73/115/3
f 72/114/3 74/117/3 75/116/3
f 70/113/6 74/118/6 72/105/6
f 78/119/3 75/116/3 76/120/3
f 74/117/3 76/120/3 75/116/3
f 77/121/3 73/115/3 75/116/3
f 78/119/3 77/121/3 75/116/3
f 77/121/3 78/119/3 79/122/3
f 80/123/1 79/122/1 78/119/1
f 78/119/1 76/120/1 81/124/1
f 78/119/1 81/124/1 80/123/1
f 82/125/2 81/124/2 84/126/2
f 82/125/2 80/123/2 81/124/2
f 76/120/1 83/127/1 81/124/1
f 84/126/2 81/124/2 83/127/2
f 87/128/6 84/129/6 71/130/6
f 86/131/2 71/111/2 84/126/2
f 87/128/6 85/132/6 84/129/6
f 82/133/1 84/129/1 85/132/1
f 84/126/2 83/127/2 86/131/2
f 88/134/5 87/128/5 71/130/5
f 88/135/2 85/136/2 87/137/2
f 88/135/2 89/138/2 85/136/2
f 90/139/4 89/140/4 88/134/4
f 88/134/5 71/130/5 90/139/5
f 69/112/2 90/141/2 71/111/2
f 90/139/4 82/133/4 89/140/4
f 90/141/2 94/142/2 82/125/2
f 69/112/2 91/143/2 90/141/2
f 93/144/2 90/141/2 91/143/2
f 90/141/2 92/145/2 94/142/2
f 93/144/2 92/145/2 90/141/2
f 96/146/2 82/125/2 94/142/2
f 97/147/4 94/142/4 92/145/4
f 96/146/4 94/142/4 95/148/4
f 97/147/4 95/148/4 94/142/4
f 95/149/3 97/150/3 98/151/3
f 97/150/3 100/152/3 98/151/3
f 97/150/3 99/153/3 100/152/3
f 92/145/4 99/154/4 97/147/4
f 101/155/3 98/151/3 100/152/3
f 100/152/5 99/153/5 93/156/5
f 101/155/5 100/152/5 91/157/5
f 100/152/5 93/156/5 91/157/5
f 101/155/3 73/115/3 98/151/3
f 68/110/3 73/115/3 101/155/3
f 69/108/5 68/110/5 101/155/5
f 101/155/5 91/157/5 69/108/5
f 92/145/4 93/144/4 99/154/4
f 77/121/3 98/151/3 73/115/3
f 95/149/3 98/151/3 77/121/3
f 96/146/2 80/123/2 82/125/2
f 80/123/1 96/146/1 79/122/1
f 96/146/4 95/148/4 79/158/4
f 77/121/3 79/122/3 95/149/3
f 82/133/1 85/132/1 89/140/1
f 70/113/6 86/131/6 74/118/6
f 86/131/6 102/159/6 74/118/6
f 86/131/6 83/127/6 102/159/6
f 86/131/2 70/113/2 71/111/2
f 76/120/1 102/160/1 83/127/1
f 74/117/3 102/160/3 76/120/3
f 106/161/5 103/162/5 104/163/5
f 107/164/6 104/163/6 103/162/6
f 106/165/2 105/166/2 103/167/2
f 107/164/6 103/162/6 105/168/6
f 108/169/1 107/170/1 105/166/1
f 108/169/3 104/171/3 107/170/3
f 108/169/3 109/172/3 104/171/3
f 110/173/4 109/174/4 108/169/4
f 108/169/1 105/166/1 110/173/1
f 106/165/2 110/173/2 105/166/2
f 110/173/4 106/161/4 109/174/4
f 106/161/5 104/163/5 109/174/5
f 114/175/5 112/176/5 111/177/5
f 115/178/4 111/177/4 112/176/4
f 114/179/2 111/180/2 113/181/2
f 115/178/4 113/182/4 111/177/4
f 116/183/1 113/181/1 115/184/1
f 116/183/3 115/184/3 112/185/3
f 118/186/6 116/183/6 117/187/6
f 116/183/3 112/185/3 117/188/3
f 116/183/1 118/186/1 113/181/1
f 114/179/2 113/181/2 118/186/2
f 118/186/6 117/187/6 114/175/6
f 114/175/5 117/187/5 112/176/5
f 123/189/6 120/190/6 119/191/6
f 122/192/5 119/193/5 120/190/5
f 123/189/6 119/191/6 121/194/6
f 122/195/2 121/196/2 119/197/2
f 124/198/1 123/189/1 121/196/1
f 124/198/3 120/190/3 123/189/3
f 124/198/3 125/199/3 120/190/3
f 126/200/4 125/199/4 124/198/4
f 124/198/1 121/196/1 126/201/1
f 122/195/2 126/201/2 121/196/2
f 126/200/4 122/202/4 125/199/4
f 122/192/5 120/190/5 125/199/5
o Arm.007
v 0.275073 0.373311 -0.319649
v 0.274755 0.373454 0.319649
v 0.353919 0.851347 -0.225298
v -0.274437 0.373596 -0.319649
v -0.353919 0.851347 -0.225298
v -0.274437 0.373596 0.319649
v -0.353919 0.851347 0.225297
v 0.353919 0.851347 0.225297
v 0.275073 0.373311 -0.225297
v -0.273869 0.374807 -0.225297
v -0.273869 0.374807 0.225297
v 0.275073 0.373311 0.225297
v 0.274437 0.851347 0.225297
v -0.274437 0.851347 0.225297
v -0.274437 0.851347 -0.225298
v 0.274437 0.851347 -0.225298
v -0.274437 0.297313 -0.225297
v -0.274437 0.297313 0.225297
v 0.274437 0.297313 -0.225297
v 0.274437 0.297313 0.225297
v -0.274437 0.927630 0.225297
v -0.274437 0.927630 -0.225297
v 0.274437 0.927630 0.225297
v 0.274437 0.927630 -0.225297
v 0.274437 0.851347 -0.319649
v -0.274437 0.851347 -0.319649
v 0.274437 0.851347 0.319649
v -0.274437 0.851347 0.319649
v -0.353919 0.373596 0.225297
v -0.353919 0.373596 -0.225297
v 0.353919 0.373596 -0.225297
v 0.353919 0.373596 0.225297
vn -0.0000 -0.0000 -1.0000
vn -0.0000 1.0000 -0.0000
vn -0.0000 -0.0000 1.0000
vn -0.0027 -1.0000 0.0015
vn 1.0000 -0.0084 -0.0000
vn -1.0000 -0.0000 -0.0000
vn 0.0151 -0.9999 -0.0000
vn 0.0036 -1.0000 -0.0000
vn 1.0000 -0.0000 -0.0000
vn -0.0000 -1.0000 -0.0000
vn -1.0000 0.0073 -0.0000
vn 1.0000 0.0013 -0.0000
vn -0.0027 -1.0000 -0.0000
vn 1.0000 0.0013 0.0034
vn -1.0000 -0.0000 0.0060
vn -1.0000 -0.0000 -0.0060
vn -0.0003 -0.9999 -0.0128
vn -0.0005 -0.9999 0.0128
vn 1.0000 0.0007 -0.0000
vn -1.0000 -0.0012 -0.0000
vt 0.956378 0.966294
vt 0.949057 0.973615
vt 0.949057 0.966294
vt 0.963699 0.944332
vt 0.971020 0.937011
vt 0.971020 0.944332
vt 0.941737 0.929690
vt 0.934416 0.922369
vt 0.941737 0.922369
vt 0.919774 0.951653
vt 0.927095 0.958974
vt 0.919774 0.958974
vt 0.941737 0.980936
vt 0.941737 0.973615
vt 0.949057 0.929690
vt 0.956378 0.922369
vt 0.956378 0.929690
vt 0.949057 0.922369
vt 0.941737 0.937011
vt 0.949057 0.937011
vt 0.949057 0.951653
vt 0.941737 0.958974
vt 0.941737 0.951653
vt 0.905133 0.951653
vt 0.897812 0.958974
vt 0.897812 0.951653
vt 0.941737 0.915049
vt 0.949057 0.915049
vt 0.934416 0.966294
vt 0.934416 0.973615
vt 0.941737 0.966294
vt 0.949057 0.958974
vt 0.905133 0.937011
vt 0.897812 0.944332
vt 0.897812 0.937011
vt 0.905132 0.944332
vt 0.890491 0.944332
vt 0.890491 0.951653
vt 0.941737 0.944332
vt 0.934416 0.951653
vt 0.934416 0.944332
vt 0.927095 0.937011
vt 0.919774 0.944332
vt 0.919774 0.937011
vt 0.927095 0.951653
vt 0.971020 0.951653
vt 0.978341 0.944332
vt 0.978341 0.951653
vt 0.949057 0.944332
vt 0.956378 0.951653
vt 0.912453 0.944332
vt 0.963699 0.958974
vt 0.971020 0.958974
vt 0.963699 0.951653
vt 0.912453 0.951653
vt 0.927095 0.944332
vt 0.956378 0.973615
vt 0.963699 0.937011
vt 0.934416 0.929690
vt 0.949057 0.980936
vt 0.905133 0.958974
vt 0.956378 0.944332
s 0
usemtl Material
f 136/203/7 145/204/7 143/205/7
f 152/206/8 142/207/8 151/208/8
f 147/209/9 139/210/9 149/211/9
f 128/212/10 137/213/10 138/214/10
f 145/204/11 138/215/11 146/216/11
f 148/217/7 142/218/7 141/219/7
f 148/217/8 149/211/8 150/220/8
f 140/221/12 148/217/12 141/222/12
f 156/223/13 137/224/13 155/225/13
f 158/226/14 135/227/14 157/228/14
f 150/220/15 139/229/15 142/230/15
f 137/231/9 146/216/9 138/232/9
f 144/233/16 145/204/16 146/216/16
f 136/234/17 144/233/17 137/224/17
f 139/235/8 129/236/8 142/237/8
f 134/238/15 157/228/15 129/236/15
f 142/239/7 157/228/7 135/240/7
f 141/222/8 133/241/8 140/221/8
f 133/241/12 156/223/12 155/225/12
f 133/241/9 137/242/9 140/243/9
f 140/244/8 153/245/8 139/246/8
f 153/245/9 132/247/9 128/212/9
f 127/248/18 142/249/18 135/250/18
f 131/251/7 136/252/7 156/223/7
f 139/253/9 158/226/9 134/238/9
f 136/254/19 127/248/19 135/255/19
f 130/256/7 151/208/7 127/248/7
f 139/253/20 128/212/20 138/257/20
f 136/252/21 152/206/21 130/256/21
f 154/258/22 137/242/22 132/247/22
f 136/203/7 135/259/7 145/204/7
f 152/206/8 141/260/8 142/207/8
f 147/209/9 140/261/9 139/210/9
f 128/212/23 132/247/23 137/213/23
f 145/204/11 135/262/11 138/215/11
f 148/217/7 150/220/7 142/218/7
f 148/217/8 147/209/8 149/211/8
f 140/221/12 147/209/12 148/217/12
f 156/223/13 136/234/13 137/224/13
f 158/226/14 138/263/14 135/227/14
f 150/220/15 149/211/15 139/229/15
f 137/231/9 144/233/9 146/216/9
f 144/233/16 143/205/16 145/204/16
f 136/234/17 143/205/17 144/233/17
f 139/235/8 134/238/8 129/236/8
f 134/238/15 158/226/15 157/228/15
f 142/239/7 129/236/7 157/228/7
f 141/222/8 131/251/8 133/241/8
f 133/241/12 131/251/12 156/223/12
f 133/241/9 155/225/9 137/242/9
f 140/244/8 154/258/8 153/245/8
f 153/245/9 154/258/9 132/247/9
f 127/248/18 151/208/18 142/249/18
f 131/251/7 141/264/7 136/252/7
f 139/253/9 138/257/9 158/226/9
f 136/254/24 130/256/24 127/248/24
f 130/256/7 152/206/7 151/208/7
f 139/253/25 153/245/25 128/212/25
f 136/252/26 141/264/26 152/206/26
f 154/258/26 140/243/26 137/242/26
