{
	"asset":{
		"generator":"Khronos glTF Blender I/O v4.3.47",
		"version":"2.0"
	},
	"scene":0,
	"scenes":[
		{
			"name":"Scene",
			"nodes":[
				5
			]
		}
	],
	"nodes":[
		{
			"name":"\u30dc\u30fc\u30f3"
		},
		{
			"name":"\u30dc\u30fc\u30f3.001",
			"translation":[
				-0.11743585765361786,
				-0.0791671946644783,
				2.2421271800994873
			]
		},
		{
			"name":"\u30dc\u30fc\u30f3.002",
			"translation":[
				-0.028543174266815186,
				-0.061654020100831985,
				2.9666285514831543
			]
		},
		{
			"name":"\u30dc\u30fc\u30f3.003",
			"translation":[
				0.005601800978183746,
				-0.0021031424403190613,
				3.6509058475494385
			]
		},
		{
			"mesh":0,
			"name":"\u7acb\u65b9\u4f53",
			"skin":0
		},
		{
			"children":[
				4,
				0,
				1,
				2,
				3
			],
			"name":"\u30a2\u30fc\u30de\u30c1\u30e5\u30a2"
		}
	],
	"animations":[
		{
			"channels":[
				{
					"sampler":0,
					"target":{
						"node":0,
						"path":"translation"
					}
				},
				{
					"sampler":1,
					"target":{
						"node":0,
						"path":"rotation"
					}
				},
				{
					"sampler":2,
					"target":{
						"node":0,
						"path":"scale"
					}
				},
				{
					"sampler":3,
					"target":{
						"node":1,
						"path":"translation"
					}
				},
				{
					"sampler":4,
					"target":{
						"node":1,
						"path":"rotation"
					}
				},
				{
					"sampler":5,
					"target":{
						"node":1,
						"path":"scale"
					}
				},
				{
					"sampler":6,
					"target":{
						"node":2,
						"path":"translation"
					}
				},
				{
					"sampler":7,
					"target":{
						"node":2,
						"path":"rotation"
					}
				},
				{
					"sampler":8,
					"target":{
						"node":2,
						"path":"scale"
					}
				},
				{
					"sampler":9,
					"target":{
						"node":3,
						"path":"translation"
					}
				},
				{
					"sampler":10,
					"target":{
						"node":3,
						"path":"rotation"
					}
				},
				{
					"sampler":11,
					"target":{
						"node":3,
						"path":"scale"
					}
				}
			],
			"name":"Standby",
			"samplers":[
				{
					"input":7,
					"interpolation":"STEP",
					"output":8
				},
				{
					"input":7,
					"interpolation":"STEP",
					"output":9
				},
				{
					"input":7,
					"interpolation":"STEP",
					"output":10
				},
				{
					"input":11,
					"interpolation":"LINEAR",
					"output":12
				},
				{
					"input":11,
					"interpolation":"LINEAR",
					"output":13
				},
				{
					"input":11,
					"interpolation":"LINEAR",
					"output":14
				},
				{
					"input":11,
					"interpolation":"LINEAR",
					"output":15
				},
				{
					"input":11,
					"interpolation":"LINEAR",
					"output":16
				},
				{
					"input":11,
					"interpolation":"LINEAR",
					"output":17
				},
				{
					"input":11,
					"interpolation":"LINEAR",
					"output":18
				},
				{
					"input":11,
					"interpolation":"LINEAR",
					"output":19
				},
				{
					"input":11,
					"interpolation":"LINEAR",
					"output":20
				}
			]
		}
	],
	"materials":[
		{
			"doubleSided":true,
			"name":"\u30de\u30c6\u30ea\u30a2\u30eb",
			"pbrMetallicRoughness":{
				"baseColorTexture":{
					"index":0
				},
				"metallicFactor":0,
				"roughnessFactor":0.5
			}
		}
	],
	"meshes":[
		{
			"name":"\u7acb\u65b9\u4f53",
			"primitives":[
				{
					"attributes":{
						"POSITION":0,
						"NORMAL":1,
						"TEXCOORD_0":2,
						"JOINTS_0":3,
						"WEIGHTS_0":4
					},
					"indices":5,
					"material":0
				}
			]
		}
	],
	"textures":[
		{
			"sampler":0,
			"source":0
		}
	],
	"images":[
		{
			"mimeType":"image/png",
			"name":"FlusteredEffect",
			"uri":"FlusteredEffect.png"
		}
	],
	"skins":[
		{
			"inverseBindMatrices":6,
			"joints":[
				0,
				1,
				2,
				3
			],
			"name":"\u30a2\u30fc\u30de\u30c1\u30e5\u30a2"
		}
	],
	"accessors":[
		{
			"bufferView":0,
			"componentType":5126,
			"count":732,
			"max":[
				0.12698887288570404,
				0.28718629479408264,
				3.8113579750061035
			],
			"min":[
				-0.17772556841373444,
				-0.12665218114852905,
				2.1050119400024414
			],
			"type":"VEC3"
		},
		{
			"bufferView":1,
			"componentType":5126,
			"count":732,
			"type":"VEC3"
		},
		{
			"bufferView":2,
			"componentType":5126,
			"count":732,
			"type":"VEC2"
		},
		{
			"bufferView":3,
			"componentType":5121,
			"count":732,
			"type":"VEC4"
		},
		{
			"bufferView":4,
			"componentType":5126,
			"count":732,
			"type":"VEC4"
		},
		{
			"bufferView":5,
			"componentType":5123,
			"count":1584,
			"type":"SCALAR"
		},
		{
			"bufferView":6,
			"componentType":5126,
			"count":4,
			"type":"MAT4"
		},
		{
			"bufferView":7,
			"componentType":5126,
			"count":2,
			"max":[
				0.4166666666666667
			],
			"min":[
				0.016666666666666666
			],
			"type":"SCALAR"
		},
		{
			"bufferView":8,
			"componentType":5126,
			"count":2,
			"type":"VEC3"
		},
		{
			"bufferView":9,
			"componentType":5126,
			"count":2,
			"type":"VEC4"
		},
		{
			"bufferView":10,
			"componentType":5126,
			"count":2,
			"type":"VEC3"
		},
		{
			"bufferView":11,
			"componentType":5126,
			"count":25,
			"max":[
				0.4166666666666667
			],
			"min":[
				0.016666666666666666
			],
			"type":"SCALAR"
		},
		{
			"bufferView":12,
			"componentType":5126,
			"count":25,
			"type":"VEC3"
		},
		{
			"bufferView":13,
			"componentType":5126,
			"count":25,
			"type":"VEC4"
		},
		{
			"bufferView":14,
			"componentType":5126,
			"count":25,
			"type":"VEC3"
		},
		{
			"bufferView":15,
			"componentType":5126,
			"count":25,
			"type":"VEC3"
		},
		{
			"bufferView":16,
			"componentType":5126,
			"count":25,
			"type":"VEC4"
		},
		{
			"bufferView":17,
			"componentType":5126,
			"count":25,
			"type":"VEC3"
		},
		{
			"bufferView":18,
			"componentType":5126,
			"count":25,
			"type":"VEC3"
		},
		{
			"bufferView":19,
			"componentType":5126,
			"count":25,
			"type":"VEC4"
		},
		{
			"bufferView":20,
			"componentType":5126,
			"count":25,
			"type":"VEC3"
		}
	],
	"bufferViews":[
		{
			"buffer":0,
			"byteLength":8784,
			"byteOffset":0,
			"target":34962
		},
		{
			"buffer":0,
			"byteLength":8784,
			"byteOffset":8784,
			"target":34962
		},
		{
			"buffer":0,
			"byteLength":5856,
			"byteOffset":17568,
			"target":34962
		},
		{
			"buffer":0,
			"byteLength":2928,
			"byteOffset":23424,
			"target":34962
		},
		{
			"buffer":0,
			"byteLength":11712,
			"byteOffset":26352,
			"target":34962
		},
		{
			"buffer":0,
			"byteLength":3168,
			"byteOffset":38064,
			"target":34963
		},
		{
			"buffer":0,
			"byteLength":256,
			"byteOffset":41232
		},
		{
			"buffer":0,
			"byteLength":8,
			"byteOffset":41488
		},
		{
			"buffer":0,
			"byteLength":24,
			"byteOffset":41496
		},
		{
			"buffer":0,
			"byteLength":32,
			"byteOffset":41520
		},
		{
			"buffer":0,
			"byteLength":24,
			"byteOffset":41552
		},
		{
			"buffer":0,
			"byteLength":100,
			"byteOffset":41576
		},
		{
			"buffer":0,
			"byteLength":300,
			"byteOffset":41676
		},
		{
			"buffer":0,
			"byteLength":400,
			"byteOffset":41976
		},
		{
			"buffer":0,
			"byteLength":300,
			"byteOffset":42376
		},
		{
			"buffer":0,
			"byteLength":300,
			"byteOffset":42676
		},
		{
			"buffer":0,
			"byteLength":400,
			"byteOffset":42976
		},
		{
			"buffer":0,
			"byteLength":300,
			"byteOffset":43376
		},
		{
			"buffer":0,
			"byteLength":300,
			"byteOffset":43676
		},
		{
			"buffer":0,
			"byteLength":400,
			"byteOffset":43976
		},
		{
			"buffer":0,
			"byteLength":300,
			"byteOffset":44376
		}
	],
	"samplers":[
		{
			"magFilter":9729,
			"minFilter":9987
		}
	],
	"buffers":[
		{
			"byteLength":44676,
			"uri":"FlusteredEffect.bin"
		}
	]
}
