{
	"asset":{
		"generator":"Khronos glTF Blender I/O v4.3.47",
		"version":"2.0"
	},
	"scene":0,
	"scenes":[
		{
			"name":"Scene",
			"nodes":[
				0,
				1,
				2,
				5
			]
		}
	],
	"nodes":[
		{
			"mesh":0,
			"name":"Cube"
		},
		{
			"mesh":1,
			"name":"\u7acb\u65b9\u4f53",
			"translation":[
				-0.1461329162120819,
				0.9932278990745544,
				0
			]
		},
		{
			"mesh":2,
			"name":"Cube.001",
			"rotation":[
				0.7071068286895752,
				0,
				0,
				0.7071068286895752
			]
		},
		{
			"name":"Rocket"
		},
		{
			"mesh":3,
			"name":"\u7acb\u65b9\u4f53.001",
			"skin":0
		},
		{
			"children":[
				4,
				3
			],
			"name":"\u30a2\u30fc\u30de\u30c1\u30e5\u30a2",
			"translation":[
				0,
				0.6243172883987427,
				0
			]
		}
	],
	"animations":[
		{
			"channels":[
				{
					"sampler":0,
					"target":{
						"node":3,
						"path":"translation"
					}
				},
				{
					"sampler":1,
					"target":{
						"node":3,
						"path":"rotation"
					}
				},
				{
					"sampler":2,
					"target":{
						"node":3,
						"path":"scale"
					}
				}
			],
			"name":"Clear",
			"samplers":[
				{
					"input":19,
					"interpolation":"LINEAR",
					"output":20
				},
				{
					"input":21,
					"interpolation":"STEP",
					"output":22
				},
				{
					"input":19,
					"interpolation":"LINEAR",
					"output":23
				}
			]
		},
		{
			"channels":[
				{
					"sampler":0,
					"target":{
						"node":3,
						"path":"translation"
					}
				},
				{
					"sampler":1,
					"target":{
						"node":3,
						"path":"rotation"
					}
				},
				{
					"sampler":2,
					"target":{
						"node":3,
						"path":"scale"
					}
				}
			],
			"name":"Failed",
			"samplers":[
				{
					"input":19,
					"interpolation":"LINEAR",
					"output":24
				},
				{
					"input":19,
					"interpolation":"LINEAR",
					"output":25
				},
				{
					"input":19,
					"interpolation":"LINEAR",
					"output":26
				}
			]
		},
		{
			"channels":[
				{
					"sampler":0,
					"target":{
						"node":3,
						"path":"translation"
					}
				},
				{
					"sampler":1,
					"target":{
						"node":3,
						"path":"rotation"
					}
				},
				{
					"sampler":2,
					"target":{
						"node":3,
						"path":"scale"
					}
				}
			],
			"name":"Standby",
			"samplers":[
				{
					"input":27,
					"interpolation":"STEP",
					"output":28
				},
				{
					"input":27,
					"interpolation":"STEP",
					"output":29
				},
				{
					"input":27,
					"interpolation":"STEP",
					"output":30
				}
			]
		}
	],
	"materials":[
		{
			"doubleSided":true,
			"name":"Material",
			"pbrMetallicRoughness":{
				"baseColorTexture":{
					"index":0
				},
				"metallicFactor":0,
				"roughnessFactor":0.5
			}
		},
		{
			"doubleSided":true,
			"name":"\u30de\u30c6\u30ea\u30a2\u30eb",
			"pbrMetallicRoughness":{
				"baseColorTexture":{
					"index":1
				},
				"metallicFactor":0,
				"roughnessFactor":0.5
			}
		},
		{
			"doubleSided":true,
			"name":"Material.001",
			"pbrMetallicRoughness":{
				"baseColorTexture":{
					"index":2
				},
				"metallicFactor":0,
				"roughnessFactor":0.5
			}
		},
		{
			"doubleSided":true,
			"name":"\u30de\u30c6\u30ea\u30a2\u30eb.001",
			"pbrMetallicRoughness":{
				"baseColorTexture":{
					"index":3
				},
				"metallicFactor":0,
				"roughnessFactor":0.5
			}
		}
	],
	"meshes":[
		{
			"name":"Cube",
			"primitives":[
				{
					"attributes":{
						"POSITION":0,
						"NORMAL":1,
						"TEXCOORD_0":2
					},
					"indices":3,
					"material":0
				}
			]
		},
		{
			"name":"\u7acb\u65b9\u4f53",
			"primitives":[
				{
					"attributes":{
						"POSITION":4,
						"NORMAL":5,
						"TEXCOORD_0":6
					},
					"indices":7,
					"material":1
				}
			]
		},
		{
			"name":"Cube.001",
			"primitives":[
				{
					"attributes":{
						"POSITION":8,
						"NORMAL":9,
						"TEXCOORD_0":10
					},
					"indices":11,
					"material":2
				}
			]
		},
		{
			"name":"\u7acb\u65b9\u4f53.001",
			"primitives":[
				{
					"attributes":{
						"POSITION":12,
						"NORMAL":13,
						"TEXCOORD_0":14,
						"JOINTS_0":15,
						"WEIGHTS_0":16
					},
					"indices":17,
					"material":3
				}
			]
		}
	],
	"textures":[
		{
			"sampler":0,
			"source":0
		},
		{
			"sampler":0,
			"source":0
		},
		{
			"sampler":0,
			"source":1
		},
		{
			"sampler":0,
			"source":0
		}
	],
	"images":[
		{
			"mimeType":"image/png",
			"name":"GoalObj",
			"uri":"GoalObj.png"
		},
		{
			"mimeType":"image/png",
			"name":"RordObj",
			"uri":"RordObj.png"
		}
	],
	"skins":[
		{
			"inverseBindMatrices":18,
			"joints":[
				3
			],
			"name":"\u30a2\u30fc\u30de\u30c1\u30e5\u30a2"
		}
	],
	"accessors":[
		{
			"bufferView":0,
			"componentType":5126,
			"count":24,
			"max":[
				0.5,
				0.5,
				0.5
			],
			"min":[
				-0.5,
				-0.5,
				-0.5
			],
			"type":"VEC3"
		},
		{
			"bufferView":1,
			"componentType":5126,
			"count":24,
			"type":"VEC3"
		},
		{
			"bufferView":2,
			"componentType":5126,
			"count":24,
			"type":"VEC2"
		},
		{
			"bufferView":3,
			"componentType":5123,
			"count":36,
			"type":"SCALAR"
		},
		{
			"bufferView":4,
			"componentType":5126,
			"count":60,
			"max":[
				0.6357622146606445,
				0.7481423020362854,
				0.07228922843933105
			],
			"min":[
				-0.2282954752445221,
				-0.5187880396842957,
				-0.07228922843933105
			],
			"type":"VEC3"
		},
		{
			"bufferView":5,
			"componentType":5126,
			"count":60,
			"type":"VEC3"
		},
		{
			"bufferView":6,
			"componentType":5126,
			"count":60,
			"type":"VEC2"
		},
		{
			"bufferView":7,
			"componentType":5123,
			"count":108,
			"type":"SCALAR"
		},
		{
			"bufferView":8,
			"componentType":5126,
			"count":24,
			"max":[
				0.5,
				0.5,
				0.5
			],
			"min":[
				-0.5,
				-0.5,
				-0.5
			],
			"type":"VEC3"
		},
		{
			"bufferView":9,
			"componentType":5126,
			"count":24,
			"type":"VEC3"
		},
		{
			"bufferView":10,
			"componentType":5126,
			"count":24,
			"type":"VEC2"
		},
		{
			"bufferView":11,
			"componentType":5123,
			"count":36,
			"type":"SCALAR"
		},
		{
			"bufferView":12,
			"componentType":5126,
			"count":708,
			"max":[
				0.26046374440193176,
				1.754577875137329,
				0.2639332413673401
			],
			"min":[
				-0.2655408978462219,
				0.49010127782821655,
				-0.25829702615737915
			],
			"type":"VEC3"
		},
		{
			"bufferView":13,
			"componentType":5126,
			"count":708,
			"type":"VEC3"
		},
		{
			"bufferView":14,
			"componentType":5126,
			"count":708,
			"type":"VEC2"
		},
		{
			"bufferView":15,
			"componentType":5121,
			"count":708,
			"type":"VEC4"
		},
		{
			"bufferView":16,
			"componentType":5126,
			"count":708,
			"type":"VEC4"
		},
		{
			"bufferView":17,
			"componentType":5123,
			"count":1740,
			"type":"SCALAR"
		},
		{
			"bufferView":18,
			"componentType":5126,
			"count":1,
			"type":"MAT4"
		},
		{
			"bufferView":19,
			"componentType":5126,
			"count":181,
			"max":[
				3
			],
			"min":[
				0
			],
			"type":"SCALAR"
		},
		{
			"bufferView":20,
			"componentType":5126,
			"count":181,
			"type":"VEC3"
		},
		{
			"bufferView":21,
			"componentType":5126,
			"count":2,
			"max":[
				3
			],
			"min":[
				0
			],
			"type":"SCALAR"
		},
		{
			"bufferView":22,
			"componentType":5126,
			"count":2,
			"type":"VEC4"
		},
		{
			"bufferView":23,
			"componentType":5126,
			"count":181,
			"type":"VEC3"
		},
		{
			"bufferView":24,
			"componentType":5126,
			"count":181,
			"type":"VEC3"
		},
		{
			"bufferView":25,
			"componentType":5126,
			"count":181,
			"type":"VEC4"
		},
		{
			"bufferView":26,
			"componentType":5126,
			"count":181,
			"type":"VEC3"
		},
		{
			"bufferView":27,
			"componentType":5126,
			"count":2,
			"max":[
				0.3333333333333333
			],
			"min":[
				0
			],
			"type":"SCALAR"
		},
		{
			"bufferView":28,
			"componentType":5126,
			"count":2,
			"type":"VEC3"
		},
		{
			"bufferView":29,
			"componentType":5126,
			"count":2,
			"type":"VEC4"
		},
		{
			"bufferView":30,
			"componentType":5126,
			"count":2,
			"type":"VEC3"
		}
	],
	"bufferViews":[
		{
			"buffer":0,
			"byteLength":288,
			"byteOffset":0,
			"target":34962
		},
		{
			"buffer":0,
			"byteLength":288,
			"byteOffset":288,
			"target":34962
		},
		{
			"buffer":0,
			"byteLength":192,
			"byteOffset":576,
			"target":34962
		},
		{
			"buffer":0,
			"byteLength":72,
			"byteOffset":768,
			"target":34963
		},
		{
			"buffer":0,
			"byteLength":720,
			"byteOffset":840,
			"target":34962
		},
		{
			"buffer":0,
			"byteLength":720,
			"byteOffset":1560,
			"target":34962
		},
		{
			"buffer":0,
			"byteLength":480,
			"byteOffset":2280,
			"target":34962
		},
		{
			"buffer":0,
			"byteLength":216,
			"byteOffset":2760,
			"target":34963
		},
		{
			"buffer":0,
			"byteLength":288,
			"byteOffset":2976,
			"target":34962
		},
		{
			"buffer":0,
			"byteLength":288,
			"byteOffset":3264,
			"target":34962
		},
		{
			"buffer":0,
			"byteLength":192,
			"byteOffset":3552,
			"target":34962
		},
		{
			"buffer":0,
			"byteLength":72,
			"byteOffset":3744,
			"target":34963
		},
		{
			"buffer":0,
			"byteLength":8496,
			"byteOffset":3816,
			"target":34962
		},
		{
			"buffer":0,
			"byteLength":8496,
			"byteOffset":12312,
			"target":34962
		},
		{
			"buffer":0,
			"byteLength":5664,
			"byteOffset":20808,
			"target":34962
		},
		{
			"buffer":0,
			"byteLength":2832,
			"byteOffset":26472,
			"target":34962
		},
		{
			"buffer":0,
			"byteLength":11328,
			"byteOffset":29304,
			"target":34962
		},
		{
			"buffer":0,
			"byteLength":3480,
			"byteOffset":40632,
			"target":34963
		},
		{
			"buffer":0,
			"byteLength":64,
			"byteOffset":44112
		},
		{
			"buffer":0,
			"byteLength":724,
			"byteOffset":44176
		},
		{
			"buffer":0,
			"byteLength":2172,
			"byteOffset":44900
		},
		{
			"buffer":0,
			"byteLength":8,
			"byteOffset":47072
		},
		{
			"buffer":0,
			"byteLength":32,
			"byteOffset":47080
		},
		{
			"buffer":0,
			"byteLength":2172,
			"byteOffset":47112
		},
		{
			"buffer":0,
			"byteLength":2172,
			"byteOffset":49284
		},
		{
			"buffer":0,
			"byteLength":2896,
			"byteOffset":51456
		},
		{
			"buffer":0,
			"byteLength":2172,
			"byteOffset":54352
		},
		{
			"buffer":0,
			"byteLength":8,
			"byteOffset":56524
		},
		{
			"buffer":0,
			"byteLength":24,
			"byteOffset":56532
		},
		{
			"buffer":0,
			"byteLength":32,
			"byteOffset":56556
		},
		{
			"buffer":0,
			"byteLength":24,
			"byteOffset":56588
		}
	],
	"samplers":[
		{
			"magFilter":9729,
			"minFilter":9987
		}
	],
	"buffers":[
		{
			"byteLength":56612,
			"uri":"GoalObj.bin"
		}
	]
}
