{
	"asset":{
		"generator":"Khronos glTF Blender I/O v4.3.47",
		"version":"2.0"
	},
	"scene":0,
	"scenes":[
		{
			"name":"Scene",
			"nodes":[
				2
			]
		}
	],
	"nodes":[
		{
			"name":"Rocket"
		},
		{
			"mesh":0,
			"name":"\u7acb\u65b9\u4f53.001",
			"skin":0
		},
		{
			"children":[
				1,
				0
			],
			"name":"\u30a2\u30fc\u30de\u30c1\u30e5\u30a2",
			"translation":[
				0,
				0.6243172883987427,
				0
			]
		}
	],
	"animations":[
		{
			"channels":[
				{
					"sampler":0,
					"target":{
						"node":0,
						"path":"translation"
					}
				},
				{
					"sampler":1,
					"target":{
						"node":0,
						"path":"rotation"
					}
				},
				{
					"sampler":2,
					"target":{
						"node":0,
						"path":"scale"
					}
				}
			],
			"name":"Clear",
			"samplers":[
				{
					"input":7,
					"interpolation":"LINEAR",
					"output":8
				},
				{
					"input":9,
					"interpolation":"STEP",
					"output":10
				},
				{
					"input":7,
					"interpolation":"LINEAR",
					"output":11
				}
			]
		},
		{
			"channels":[
				{
					"sampler":0,
					"target":{
						"node":0,
						"path":"translation"
					}
				},
				{
					"sampler":1,
					"target":{
						"node":0,
						"path":"rotation"
					}
				},
				{
					"sampler":2,
					"target":{
						"node":0,
						"path":"scale"
					}
				}
			],
			"name":"Failed",
			"samplers":[
				{
					"input":7,
					"interpolation":"LINEAR",
					"output":12
				},
				{
					"input":7,
					"interpolation":"LINEAR",
					"output":13
				},
				{
					"input":7,
					"interpolation":"LINEAR",
					"output":14
				}
			]
		},
		{
			"channels":[
				{
					"sampler":0,
					"target":{
						"node":0,
						"path":"translation"
					}
				},
				{
					"sampler":1,
					"target":{
						"node":0,
						"path":"rotation"
					}
				},
				{
					"sampler":2,
					"target":{
						"node":0,
						"path":"scale"
					}
				}
			],
			"name":"Standby",
			"samplers":[
				{
					"input":15,
					"interpolation":"STEP",
					"output":16
				},
				{
					"input":15,
					"interpolation":"STEP",
					"output":17
				},
				{
					"input":15,
					"interpolation":"STEP",
					"output":18
				}
			]
		}
	],
	"materials":[
		{
			"doubleSided":true,
			"name":"\u30de\u30c6\u30ea\u30a2\u30eb.001",
			"pbrMetallicRoughness":{
				"baseColorTexture":{
					"index":0
				},
				"metallicFactor":0,
				"roughnessFactor":0.5
			}
		}
	],
	"meshes":[
		{
			"name":"\u7acb\u65b9\u4f53.001",
			"primitives":[
				{
					"attributes":{
						"POSITION":0,
						"NORMAL":1,
						"TEXCOORD_0":2,
						"JOINTS_0":3,
						"WEIGHTS_0":4
					},
					"indices":5,
					"material":0
				}
			]
		}
	],
	"textures":[
		{
			"sampler":0,
			"source":0
		}
	],
	"images":[
		{
			"mimeType":"image/png",
			"name":"GoalObj",
			"uri":"GoalObj.png"
		}
	],
	"skins":[
		{
			"inverseBindMatrices":6,
			"joints":[
				0
			],
			"name":"\u30a2\u30fc\u30de\u30c1\u30e5\u30a2"
		}
	],
	"accessors":[
		{
			"bufferView":0,
			"componentType":5126,
			"count":708,
			"max":[
				0.26046374440193176,
				1.754577875137329,
				0.2639332413673401
			],
			"min":[
				-0.2655408978462219,
				0.49010127782821655,
				-0.25829702615737915
			],
			"type":"VEC3"
		},
		{
			"bufferView":1,
			"componentType":5126,
			"count":708,
			"type":"VEC3"
		},
		{
			"bufferView":2,
			"componentType":5126,
			"count":708,
			"type":"VEC2"
		},
		{
			"bufferView":3,
			"componentType":5121,
			"count":708,
			"type":"VEC4"
		},
		{
			"bufferView":4,
			"componentType":5126,
			"count":708,
			"type":"VEC4"
		},
		{
			"bufferView":5,
			"componentType":5123,
			"count":1740,
			"type":"SCALAR"
		},
		{
			"bufferView":6,
			"componentType":5126,
			"count":1,
			"type":"MAT4"
		},
		{
			"bufferView":7,
			"componentType":5126,
			"count":181,
			"max":[
				3
			],
			"min":[
				0
			],
			"type":"SCALAR"
		},
		{
			"bufferView":8,
			"componentType":5126,
			"count":181,
			"type":"VEC3"
		},
		{
			"bufferView":9,
			"componentType":5126,
			"count":2,
			"max":[
				3
			],
			"min":[
				0
			],
			"type":"SCALAR"
		},
		{
			"bufferView":10,
			"componentType":5126,
			"count":2,
			"type":"VEC4"
		},
		{
			"bufferView":11,
			"componentType":5126,
			"count":181,
			"type":"VEC3"
		},
		{
			"bufferView":12,
			"componentType":5126,
			"count":181,
			"type":"VEC3"
		},
		{
			"bufferView":13,
			"componentType":5126,
			"count":181,
			"type":"VEC4"
		},
		{
			"bufferView":14,
			"componentType":5126,
			"count":181,
			"type":"VEC3"
		},
		{
			"bufferView":15,
			"componentType":5126,
			"count":2,
			"max":[
				0.3333333333333333
			],
			"min":[
				0
			],
			"type":"SCALAR"
		},
		{
			"bufferView":16,
			"componentType":5126,
			"count":2,
			"type":"VEC3"
		},
		{
			"bufferView":17,
			"componentType":5126,
			"count":2,
			"type":"VEC4"
		},
		{
			"bufferView":18,
			"componentType":5126,
			"count":2,
			"type":"VEC3"
		}
	],
	"bufferViews":[
		{
			"buffer":0,
			"byteLength":8496,
			"byteOffset":0,
			"target":34962
		},
		{
			"buffer":0,
			"byteLength":8496,
			"byteOffset":8496,
			"target":34962
		},
		{
			"buffer":0,
			"byteLength":5664,
			"byteOffset":16992,
			"target":34962
		},
		{
			"buffer":0,
			"byteLength":2832,
			"byteOffset":22656,
			"target":34962
		},
		{
			"buffer":0,
			"byteLength":11328,
			"byteOffset":25488,
			"target":34962
		},
		{
			"buffer":0,
			"byteLength":3480,
			"byteOffset":36816,
			"target":34963
		},
		{
			"buffer":0,
			"byteLength":64,
			"byteOffset":40296
		},
		{
			"buffer":0,
			"byteLength":724,
			"byteOffset":40360
		},
		{
			"buffer":0,
			"byteLength":2172,
			"byteOffset":41084
		},
		{
			"buffer":0,
			"byteLength":8,
			"byteOffset":43256
		},
		{
			"buffer":0,
			"byteLength":32,
			"byteOffset":43264
		},
		{
			"buffer":0,
			"byteLength":2172,
			"byteOffset":43296
		},
		{
			"buffer":0,
			"byteLength":2172,
			"byteOffset":45468
		},
		{
			"buffer":0,
			"byteLength":2896,
			"byteOffset":47640
		},
		{
			"buffer":0,
			"byteLength":2172,
			"byteOffset":50536
		},
		{
			"buffer":0,
			"byteLength":8,
			"byteOffset":52708
		},
		{
			"buffer":0,
			"byteLength":24,
			"byteOffset":52716
		},
		{
			"buffer":0,
			"byteLength":32,
			"byteOffset":52740
		},
		{
			"buffer":0,
			"byteLength":24,
			"byteOffset":52772
		}
	],
	"samplers":[
		{
			"magFilter":9729,
			"minFilter":9987
		}
	],
	"buffers":[
		{
			"byteLength":52796,
			"uri":"GoalObj.bin"
		}
	]
}
