{
	"asset":{
		"generator":"Khronos glTF Blender I/O v4.3.47",
		"version":"2.0"
	},
	"scene":0,
	"scenes":[
		{
			"name":"Scene",
			"nodes":[
				0,
				3
			]
		}
	],
	"nodes":[
		{
			"mesh":0,
			"name":"Cube.001",
			"rotation":[
				0.7071068286895752,
				0,
				0,
				0.7071068286895752
			]
		},
		{
			"name":"Rocket"
		},
		{
			"mesh":1,
			"name":"\u7acb\u65b9\u4f53.001",
			"skin":0
		},
		{
			"children":[
				2,
				1
			],
			"name":"\u30a2\u30fc\u30de\u30c1\u30e5\u30a2",
			"translation":[
				0,
				0.6243172883987427,
				0
			]
		}
	],
	"animations":[
		{
			"channels":[
				{
					"sampler":0,
					"target":{
						"node":1,
						"path":"translation"
					}
				},
				{
					"sampler":1,
					"target":{
						"node":1,
						"path":"rotation"
					}
				},
				{
					"sampler":2,
					"target":{
						"node":1,
						"path":"scale"
					}
				}
			],
			"name":"Clear",
			"samplers":[
				{
					"input":11,
					"interpolation":"LINEAR",
					"output":12
				},
				{
					"input":13,
					"interpolation":"STEP",
					"output":14
				},
				{
					"input":11,
					"interpolation":"LINEAR",
					"output":15
				}
			]
		},
		{
			"channels":[
				{
					"sampler":0,
					"target":{
						"node":1,
						"path":"translation"
					}
				},
				{
					"sampler":1,
					"target":{
						"node":1,
						"path":"rotation"
					}
				},
				{
					"sampler":2,
					"target":{
						"node":1,
						"path":"scale"
					}
				}
			],
			"name":"Failed",
			"samplers":[
				{
					"input":11,
					"interpolation":"LINEAR",
					"output":16
				},
				{
					"input":11,
					"interpolation":"LINEAR",
					"output":17
				},
				{
					"input":11,
					"interpolation":"LINEAR",
					"output":18
				}
			]
		},
		{
			"channels":[
				{
					"sampler":0,
					"target":{
						"node":1,
						"path":"translation"
					}
				},
				{
					"sampler":1,
					"target":{
						"node":1,
						"path":"rotation"
					}
				},
				{
					"sampler":2,
					"target":{
						"node":1,
						"path":"scale"
					}
				}
			],
			"name":"Standby",
			"samplers":[
				{
					"input":19,
					"interpolation":"STEP",
					"output":20
				},
				{
					"input":19,
					"interpolation":"STEP",
					"output":21
				},
				{
					"input":19,
					"interpolation":"STEP",
					"output":22
				}
			]
		}
	],
	"materials":[
		{
			"doubleSided":true,
			"name":"Material.001",
			"pbrMetallicRoughness":{
				"baseColorTexture":{
					"index":0
				},
				"metallicFactor":0,
				"roughnessFactor":0.5
			}
		},
		{
			"doubleSided":true,
			"name":"\u30de\u30c6\u30ea\u30a2\u30eb.001",
			"pbrMetallicRoughness":{
				"baseColorTexture":{
					"index":1
				},
				"metallicFactor":0,
				"roughnessFactor":0.5
			}
		}
	],
	"meshes":[
		{
			"name":"Cube.001",
			"primitives":[
				{
					"attributes":{
						"POSITION":0,
						"NORMAL":1,
						"TEXCOORD_0":2
					},
					"indices":3,
					"material":0
				}
			]
		},
		{
			"name":"\u7acb\u65b9\u4f53.001",
			"primitives":[
				{
					"attributes":{
						"POSITION":4,
						"NORMAL":5,
						"TEXCOORD_0":6,
						"JOINTS_0":7,
						"WEIGHTS_0":8
					},
					"indices":9,
					"material":1
				}
			]
		}
	],
	"textures":[
		{
			"sampler":0,
			"source":0
		},
		{
			"sampler":0,
			"source":1
		}
	],
	"images":[
		{
			"mimeType":"image/png",
			"name":"RordObj",
			"uri":"RordObj.png"
		},
		{
			"mimeType":"image/png",
			"name":"GoalObj",
			"uri":"GoalObj.png"
		}
	],
	"skins":[
		{
			"inverseBindMatrices":10,
			"joints":[
				1
			],
			"name":"\u30a2\u30fc\u30de\u30c1\u30e5\u30a2"
		}
	],
	"accessors":[
		{
			"bufferView":0,
			"componentType":5126,
			"count":24,
			"max":[
				0.5,
				0.5,
				0.5
			],
			"min":[
				-0.5,
				-0.5,
				-0.5
			],
			"type":"VEC3"
		},
		{
			"bufferView":1,
			"componentType":5126,
			"count":24,
			"type":"VEC3"
		},
		{
			"bufferView":2,
			"componentType":5126,
			"count":24,
			"type":"VEC2"
		},
		{
			"bufferView":3,
			"componentType":5123,
			"count":36,
			"type":"SCALAR"
		},
		{
			"bufferView":4,
			"componentType":5126,
			"count":708,
			"max":[
				0.26046374440193176,
				1.754577875137329,
				0.2639332413673401
			],
			"min":[
				-0.2655408978462219,
				0.49010127782821655,
				-0.25829702615737915
			],
			"type":"VEC3"
		},
		{
			"bufferView":5,
			"componentType":5126,
			"count":708,
			"type":"VEC3"
		},
		{
			"bufferView":6,
			"componentType":5126,
			"count":708,
			"type":"VEC2"
		},
		{
			"bufferView":7,
			"componentType":5121,
			"count":708,
			"type":"VEC4"
		},
		{
			"bufferView":8,
			"componentType":5126,
			"count":708,
			"type":"VEC4"
		},
		{
			"bufferView":9,
			"componentType":5123,
			"count":1740,
			"type":"SCALAR"
		},
		{
			"bufferView":10,
			"componentType":5126,
			"count":1,
			"type":"MAT4"
		},
		{
			"bufferView":11,
			"componentType":5126,
			"count":181,
			"max":[
				3
			],
			"min":[
				0
			],
			"type":"SCALAR"
		},
		{
			"bufferView":12,
			"componentType":5126,
			"count":181,
			"type":"VEC3"
		},
		{
			"bufferView":13,
			"componentType":5126,
			"count":2,
			"max":[
				3
			],
			"min":[
				0
			],
			"type":"SCALAR"
		},
		{
			"bufferView":14,
			"componentType":5126,
			"count":2,
			"type":"VEC4"
		},
		{
			"bufferView":15,
			"componentType":5126,
			"count":181,
			"type":"VEC3"
		},
		{
			"bufferView":16,
			"componentType":5126,
			"count":181,
			"type":"VEC3"
		},
		{
			"bufferView":17,
			"componentType":5126,
			"count":181,
			"type":"VEC4"
		},
		{
			"bufferView":18,
			"componentType":5126,
			"count":181,
			"type":"VEC3"
		},
		{
			"bufferView":19,
			"componentType":5126,
			"count":2,
			"max":[
				0.3333333333333333
			],
			"min":[
				0
			],
			"type":"SCALAR"
		},
		{
			"bufferView":20,
			"componentType":5126,
			"count":2,
			"type":"VEC3"
		},
		{
			"bufferView":21,
			"componentType":5126,
			"count":2,
			"type":"VEC4"
		},
		{
			"bufferView":22,
			"componentType":5126,
			"count":2,
			"type":"VEC3"
		}
	],
	"bufferViews":[
		{
			"buffer":0,
			"byteLength":288,
			"byteOffset":0,
			"target":34962
		},
		{
			"buffer":0,
			"byteLength":288,
			"byteOffset":288,
			"target":34962
		},
		{
			"buffer":0,
			"byteLength":192,
			"byteOffset":576,
			"target":34962
		},
		{
			"buffer":0,
			"byteLength":72,
			"byteOffset":768,
			"target":34963
		},
		{
			"buffer":0,
			"byteLength":8496,
			"byteOffset":840,
			"target":34962
		},
		{
			"buffer":0,
			"byteLength":8496,
			"byteOffset":9336,
			"target":34962
		},
		{
			"buffer":0,
			"byteLength":5664,
			"byteOffset":17832,
			"target":34962
		},
		{
			"buffer":0,
			"byteLength":2832,
			"byteOffset":23496,
			"target":34962
		},
		{
			"buffer":0,
			"byteLength":11328,
			"byteOffset":26328,
			"target":34962
		},
		{
			"buffer":0,
			"byteLength":3480,
			"byteOffset":37656,
			"target":34963
		},
		{
			"buffer":0,
			"byteLength":64,
			"byteOffset":41136
		},
		{
			"buffer":0,
			"byteLength":724,
			"byteOffset":41200
		},
		{
			"buffer":0,
			"byteLength":2172,
			"byteOffset":41924
		},
		{
			"buffer":0,
			"byteLength":8,
			"byteOffset":44096
		},
		{
			"buffer":0,
			"byteLength":32,
			"byteOffset":44104
		},
		{
			"buffer":0,
			"byteLength":2172,
			"byteOffset":44136
		},
		{
			"buffer":0,
			"byteLength":2172,
			"byteOffset":46308
		},
		{
			"buffer":0,
			"byteLength":2896,
			"byteOffset":48480
		},
		{
			"buffer":0,
			"byteLength":2172,
			"byteOffset":51376
		},
		{
			"buffer":0,
			"byteLength":8,
			"byteOffset":53548
		},
		{
			"buffer":0,
			"byteLength":24,
			"byteOffset":53556
		},
		{
			"buffer":0,
			"byteLength":32,
			"byteOffset":53580
		},
		{
			"buffer":0,
			"byteLength":24,
			"byteOffset":53612
		}
	],
	"samplers":[
		{
			"magFilter":9729,
			"minFilter":9987
		}
	],
	"buffers":[
		{
			"byteLength":53636,
			"uri":"GoalObj.bin"
		}
	]
}
