{
	"asset":{
		"generator":"Khronos glTF Blender I/O v4.3.47",
		"version":"2.0"
	},
	"scene":0,
	"scenes":[
		{
			"name":"Scene",
			"nodes":[
				8
			]
		}
	],
	"nodes":[
		{
			"name":"\u30dc\u30fc\u30f3.002",
			"rotation":[
				0.5000001192092896,
				0.4999999403953552,
				0.4999999403953552,
				0.5000000596046448
			],
			"translation":[
				-0.19717833399772644,
				-0.19075244665145874,
				-0.003116167150437832
			]
		},
		{
			"name":"\u30dc\u30fc\u30f3.001",
			"rotation":[
				1,
				0,
				-4.371138828673793e-08,
				0
			],
			"translation":[
				-0.4505583643913269,
				0.3028605282306671,
				0.09928906708955765
			]
		},
		{
			"name":"\u30dc\u30fc\u30f3.003",
			"rotation":[
				0,
				1.1920927533992653e-07,
				0,
				1
			],
			"translation":[
				0,
				0.3982875347137451,
				0
			]
		},
		{
			"name":"\u30dc\u30fc\u30f3.004",
			"rotation":[
				0.5000002384185791,
				0.4999998211860657,
				0.4999998211860657,
				0.5000001788139343
			],
			"translation":[
				0.19717833399772644,
				-0.19075244665145874,
				-0.003116167150437832
			]
		},
		{
			"name":"\u30dc\u30fc\u30f3.005",
			"rotation":[
				1,
				0,
				-4.371138828673793e-08,
				0
			],
			"translation":[
				0.4505583643913269,
				0.3028605282306671,
				0.09765419363975525
			]
		},
		{
			"children":[
				0,
				1,
				2,
				3,
				4
			],
			"name":"\u30dc\u30fc\u30f3",
			"translation":[
				0,
				-0.24946320056915283,
				0
			]
		},
		{
			"mesh":0,
			"name":"Arm",
			"skin":0
		},
		{
			"mesh":1,
			"name":"Arm.007",
			"skin":0
		},
		{
			"children":[
				6,
				7,
				5
			],
			"name":"\u30a2\u30fc\u30de\u30c1\u30e5\u30a2"
		}
	],
	"animations":[
		{
			"channels":[
				{
					"sampler":0,
					"target":{
						"node":5,
						"path":"translation"
					}
				},
				{
					"sampler":1,
					"target":{
						"node":5,
						"path":"rotation"
					}
				},
				{
					"sampler":2,
					"target":{
						"node":5,
						"path":"scale"
					}
				},
				{
					"sampler":3,
					"target":{
						"node":0,
						"path":"translation"
					}
				},
				{
					"sampler":4,
					"target":{
						"node":0,
						"path":"rotation"
					}
				},
				{
					"sampler":5,
					"target":{
						"node":0,
						"path":"scale"
					}
				},
				{
					"sampler":6,
					"target":{
						"node":1,
						"path":"translation"
					}
				},
				{
					"sampler":7,
					"target":{
						"node":1,
						"path":"rotation"
					}
				},
				{
					"sampler":8,
					"target":{
						"node":1,
						"path":"scale"
					}
				},
				{
					"sampler":9,
					"target":{
						"node":2,
						"path":"translation"
					}
				},
				{
					"sampler":10,
					"target":{
						"node":2,
						"path":"rotation"
					}
				},
				{
					"sampler":11,
					"target":{
						"node":2,
						"path":"scale"
					}
				},
				{
					"sampler":12,
					"target":{
						"node":3,
						"path":"translation"
					}
				},
				{
					"sampler":13,
					"target":{
						"node":3,
						"path":"rotation"
					}
				},
				{
					"sampler":14,
					"target":{
						"node":3,
						"path":"scale"
					}
				},
				{
					"sampler":15,
					"target":{
						"node":4,
						"path":"translation"
					}
				},
				{
					"sampler":16,
					"target":{
						"node":4,
						"path":"rotation"
					}
				},
				{
					"sampler":17,
					"target":{
						"node":4,
						"path":"scale"
					}
				}
			],
			"name":"Hold",
			"samplers":[
				{
					"input":15,
					"interpolation":"LINEAR",
					"output":16
				},
				{
					"input":15,
					"interpolation":"LINEAR",
					"output":17
				},
				{
					"input":18,
					"interpolation":"STEP",
					"output":19
				},
				{
					"input":18,
					"interpolation":"LINEAR",
					"output":20
				},
				{
					"input":18,
					"interpolation":"LINEAR",
					"output":21
				},
				{
					"input":18,
					"interpolation":"STEP",
					"output":22
				},
				{
					"input":18,
					"interpolation":"LINEAR",
					"output":23
				},
				{
					"input":15,
					"interpolation":"LINEAR",
					"output":24
				},
				{
					"input":18,
					"interpolation":"LINEAR",
					"output":25
				},
				{
					"input":18,
					"interpolation":"LINEAR",
					"output":26
				},
				{
					"input":15,
					"interpolation":"LINEAR",
					"output":27
				},
				{
					"input":18,
					"interpolation":"STEP",
					"output":28
				},
				{
					"input":18,
					"interpolation":"LINEAR",
					"output":29
				},
				{
					"input":18,
					"interpolation":"LINEAR",
					"output":30
				},
				{
					"input":18,
					"interpolation":"STEP",
					"output":31
				},
				{
					"input":18,
					"interpolation":"LINEAR",
					"output":32
				},
				{
					"input":15,
					"interpolation":"LINEAR",
					"output":33
				},
				{
					"input":18,
					"interpolation":"STEP",
					"output":34
				}
			]
		},
		{
			"channels":[
				{
					"sampler":0,
					"target":{
						"node":5,
						"path":"translation"
					}
				},
				{
					"sampler":1,
					"target":{
						"node":5,
						"path":"rotation"
					}
				},
				{
					"sampler":2,
					"target":{
						"node":5,
						"path":"scale"
					}
				},
				{
					"sampler":3,
					"target":{
						"node":0,
						"path":"translation"
					}
				},
				{
					"sampler":4,
					"target":{
						"node":0,
						"path":"rotation"
					}
				},
				{
					"sampler":5,
					"target":{
						"node":0,
						"path":"scale"
					}
				},
				{
					"sampler":6,
					"target":{
						"node":1,
						"path":"translation"
					}
				},
				{
					"sampler":7,
					"target":{
						"node":1,
						"path":"rotation"
					}
				},
				{
					"sampler":8,
					"target":{
						"node":1,
						"path":"scale"
					}
				},
				{
					"sampler":9,
					"target":{
						"node":2,
						"path":"translation"
					}
				},
				{
					"sampler":10,
					"target":{
						"node":2,
						"path":"rotation"
					}
				},
				{
					"sampler":11,
					"target":{
						"node":2,
						"path":"scale"
					}
				},
				{
					"sampler":12,
					"target":{
						"node":3,
						"path":"translation"
					}
				},
				{
					"sampler":13,
					"target":{
						"node":3,
						"path":"rotation"
					}
				},
				{
					"sampler":14,
					"target":{
						"node":3,
						"path":"scale"
					}
				},
				{
					"sampler":15,
					"target":{
						"node":4,
						"path":"translation"
					}
				},
				{
					"sampler":16,
					"target":{
						"node":4,
						"path":"rotation"
					}
				},
				{
					"sampler":17,
					"target":{
						"node":4,
						"path":"scale"
					}
				}
			],
			"name":"standby",
			"samplers":[
				{
					"input":35,
					"interpolation":"LINEAR",
					"output":36
				},
				{
					"input":37,
					"interpolation":"STEP",
					"output":38
				},
				{
					"input":37,
					"interpolation":"STEP",
					"output":39
				},
				{
					"input":37,
					"interpolation":"STEP",
					"output":40
				},
				{
					"input":35,
					"interpolation":"LINEAR",
					"output":41
				},
				{
					"input":37,
					"interpolation":"STEP",
					"output":42
				},
				{
					"input":37,
					"interpolation":"STEP",
					"output":43
				},
				{
					"input":35,
					"interpolation":"LINEAR",
					"output":44
				},
				{
					"input":37,
					"interpolation":"STEP",
					"output":45
				},
				{
					"input":35,
					"interpolation":"LINEAR",
					"output":46
				},
				{
					"input":37,
					"interpolation":"STEP",
					"output":47
				},
				{
					"input":37,
					"interpolation":"STEP",
					"output":48
				},
				{
					"input":37,
					"interpolation":"STEP",
					"output":49
				},
				{
					"input":35,
					"interpolation":"LINEAR",
					"output":50
				},
				{
					"input":37,
					"interpolation":"STEP",
					"output":51
				},
				{
					"input":37,
					"interpolation":"STEP",
					"output":52
				},
				{
					"input":35,
					"interpolation":"LINEAR",
					"output":53
				},
				{
					"input":37,
					"interpolation":"STEP",
					"output":54
				}
			]
		},
		{
			"channels":[
				{
					"sampler":0,
					"target":{
						"node":5,
						"path":"translation"
					}
				},
				{
					"sampler":1,
					"target":{
						"node":5,
						"path":"rotation"
					}
				},
				{
					"sampler":2,
					"target":{
						"node":5,
						"path":"scale"
					}
				},
				{
					"sampler":3,
					"target":{
						"node":0,
						"path":"translation"
					}
				},
				{
					"sampler":4,
					"target":{
						"node":0,
						"path":"rotation"
					}
				},
				{
					"sampler":5,
					"target":{
						"node":0,
						"path":"scale"
					}
				},
				{
					"sampler":6,
					"target":{
						"node":1,
						"path":"translation"
					}
				},
				{
					"sampler":7,
					"target":{
						"node":1,
						"path":"rotation"
					}
				},
				{
					"sampler":8,
					"target":{
						"node":1,
						"path":"scale"
					}
				},
				{
					"sampler":9,
					"target":{
						"node":2,
						"path":"translation"
					}
				},
				{
					"sampler":10,
					"target":{
						"node":2,
						"path":"rotation"
					}
				},
				{
					"sampler":11,
					"target":{
						"node":2,
						"path":"scale"
					}
				},
				{
					"sampler":12,
					"target":{
						"node":3,
						"path":"translation"
					}
				},
				{
					"sampler":13,
					"target":{
						"node":3,
						"path":"rotation"
					}
				},
				{
					"sampler":14,
					"target":{
						"node":3,
						"path":"scale"
					}
				},
				{
					"sampler":15,
					"target":{
						"node":4,
						"path":"translation"
					}
				},
				{
					"sampler":16,
					"target":{
						"node":4,
						"path":"rotation"
					}
				},
				{
					"sampler":17,
					"target":{
						"node":4,
						"path":"scale"
					}
				}
			],
			"name":"\u30a2\u30fc\u30de\u30c1\u30e5\u30a2",
			"samplers":[
				{
					"input":55,
					"interpolation":"LINEAR",
					"output":56
				},
				{
					"input":55,
					"interpolation":"LINEAR",
					"output":57
				},
				{
					"input":55,
					"interpolation":"LINEAR",
					"output":58
				},
				{
					"input":55,
					"interpolation":"LINEAR",
					"output":59
				},
				{
					"input":55,
					"interpolation":"LINEAR",
					"output":60
				},
				{
					"input":55,
					"interpolation":"LINEAR",
					"output":61
				},
				{
					"input":55,
					"interpolation":"LINEAR",
					"output":62
				},
				{
					"input":55,
					"interpolation":"LINEAR",
					"output":63
				},
				{
					"input":55,
					"interpolation":"LINEAR",
					"output":64
				},
				{
					"input":55,
					"interpolation":"LINEAR",
					"output":65
				},
				{
					"input":55,
					"interpolation":"LINEAR",
					"output":66
				},
				{
					"input":55,
					"interpolation":"LINEAR",
					"output":67
				},
				{
					"input":55,
					"interpolation":"LINEAR",
					"output":68
				},
				{
					"input":55,
					"interpolation":"LINEAR",
					"output":69
				},
				{
					"input":55,
					"interpolation":"LINEAR",
					"output":70
				},
				{
					"input":55,
					"interpolation":"LINEAR",
					"output":71
				},
				{
					"input":55,
					"interpolation":"LINEAR",
					"output":72
				},
				{
					"input":55,
					"interpolation":"LINEAR",
					"output":73
				}
			]
		}
	],
	"materials":[
		{
			"alphaMode":"BLEND",
			"doubleSided":true,
			"name":"Material",
			"pbrMetallicRoughness":{
				"baseColorTexture":{
					"index":0
				},
				"metallicFactor":0,
				"roughnessFactor":0.5
			}
		}
	],
	"meshes":[
		{
			"name":"\u7acb\u65b9\u4f53.001",
			"primitives":[
				{
					"attributes":{
						"POSITION":0,
						"NORMAL":1,
						"TEXCOORD_0":2,
						"TEXCOORD_1":3,
						"JOINTS_0":4,
						"WEIGHTS_0":5
					},
					"indices":6,
					"material":0
				}
			]
		},
		{
			"name":"\u7acb\u65b9\u4f53.012",
			"primitives":[
				{
					"attributes":{
						"POSITION":8,
						"NORMAL":9,
						"TEXCOORD_0":10,
						"TEXCOORD_1":11,
						"JOINTS_0":12,
						"WEIGHTS_0":13
					},
					"indices":14,
					"material":0
				}
			]
		}
	],
	"textures":[
		{
			"sampler":0,
			"source":0
		}
	],
	"images":[
		{
			"mimeType":"image/png",
			"name":"ChiledKoala",
			"uri":"ChiledKoala.png"
		}
	],
	"skins":[
		{
			"inverseBindMatrices":7,
			"joints":[
				5,
				0,
				1,
				2,
				3,
				4
			],
			"name":"\u30a2\u30fc\u30de\u30c1\u30e5\u30a2"
		}
	],
	"accessors":[
		{
			"bufferView":0,
			"componentType":5126,
			"count":350,
			"max":[
				0.49190011620521545,
				0.5579968094825745,
				0.3320508301258087
			],
			"min":[
				-0.49190011620521545,
				-0.5081058740615845,
				-0.41997525095939636
			],
			"type":"VEC3"
		},
		{
			"bufferView":1,
			"componentType":5126,
			"count":350,
			"type":"VEC3"
		},
		{
			"bufferView":2,
			"componentType":5126,
			"count":350,
			"type":"VEC2"
		},
		{
			"bufferView":3,
			"componentType":5126,
			"count":350,
			"type":"VEC2"
		},
		{
			"bufferView":4,
			"componentType":5121,
			"count":350,
			"type":"VEC4"
		},
		{
			"bufferView":5,
			"componentType":5126,
			"count":350,
			"type":"VEC4"
		},
		{
			"bufferView":6,
			"componentType":5123,
			"count":672,
			"type":"SCALAR"
		},
		{
			"bufferView":7,
			"componentType":5126,
			"count":6,
			"type":"MAT4"
		},
		{
			"bufferView":8,
			"componentType":5126,
			"count":130,
			"max":[
				0.3539193868637085,
				0.6592588424682617,
				0.3196488916873932
			],
			"min":[
				-0.3539193868637085,
				0.1349726915359497,
				-0.3196488916873932
			],
			"type":"VEC3"
		},
		{
			"bufferView":9,
			"componentType":5126,
			"count":130,
			"type":"VEC3"
		},
		{
			"bufferView":10,
			"componentType":5126,
			"count":130,
			"type":"VEC2"
		},
		{
			"bufferView":11,
			"componentType":5126,
			"count":130,
			"type":"VEC2"
		},
		{
			"bufferView":12,
			"componentType":5121,
			"count":130,
			"type":"VEC4"
		},
		{
			"bufferView":13,
			"componentType":5126,
			"count":130,
			"type":"VEC4"
		},
		{
			"bufferView":14,
			"componentType":5123,
			"count":180,
			"type":"SCALAR"
		},
		{
			"bufferView":15,
			"componentType":5126,
			"count":11,
			"max":[
				0.4166666666666667
			],
			"min":[
				0
			],
			"type":"SCALAR"
		},
		{
			"bufferView":16,
			"componentType":5126,
			"count":11,
			"type":"VEC3"
		},
		{
			"bufferView":17,
			"componentType":5126,
			"count":11,
			"type":"VEC4"
		},
		{
			"bufferView":18,
			"componentType":5126,
			"count":2,
			"max":[
				0.4166666666666667
			],
			"min":[
				0
			],
			"type":"SCALAR"
		},
		{
			"bufferView":19,
			"componentType":5126,
			"count":2,
			"type":"VEC3"
		},
		{
			"bufferView":20,
			"componentType":5126,
			"count":2,
			"type":"VEC3"
		},
		{
			"bufferView":21,
			"componentType":5126,
			"count":2,
			"type":"VEC4"
		},
		{
			"bufferView":22,
			"componentType":5126,
			"count":2,
			"type":"VEC3"
		},
		{
			"bufferView":23,
			"componentType":5126,
			"count":2,
			"type":"VEC3"
		},
		{
			"bufferView":24,
			"componentType":5126,
			"count":11,
			"type":"VEC4"
		},
		{
			"bufferView":25,
			"componentType":5126,
			"count":2,
			"type":"VEC3"
		},
		{
			"bufferView":26,
			"componentType":5126,
			"count":2,
			"type":"VEC3"
		},
		{
			"bufferView":27,
			"componentType":5126,
			"count":11,
			"type":"VEC4"
		},
		{
			"bufferView":28,
			"componentType":5126,
			"count":2,
			"type":"VEC3"
		},
		{
			"bufferView":29,
			"componentType":5126,
			"count":2,
			"type":"VEC3"
		},
		{
			"bufferView":30,
			"componentType":5126,
			"count":2,
			"type":"VEC4"
		},
		{
			"bufferView":31,
			"componentType":5126,
			"count":2,
			"type":"VEC3"
		},
		{
			"bufferView":32,
			"componentType":5126,
			"count":2,
			"type":"VEC3"
		},
		{
			"bufferView":33,
			"componentType":5126,
			"count":11,
			"type":"VEC4"
		},
		{
			"bufferView":34,
			"componentType":5126,
			"count":2,
			"type":"VEC3"
		},
		{
			"bufferView":35,
			"componentType":5126,
			"count":25,
			"max":[
				1
			],
			"min":[
				0
			],
			"type":"SCALAR"
		},
		{
			"bufferView":36,
			"componentType":5126,
			"count":25,
			"type":"VEC3"
		},
		{
			"bufferView":37,
			"componentType":5126,
			"count":2,
			"max":[
				1
			],
			"min":[
				0
			],
			"type":"SCALAR"
		},
		{
			"bufferView":38,
			"componentType":5126,
			"count":2,
			"type":"VEC4"
		},
		{
			"bufferView":39,
			"componentType":5126,
			"count":2,
			"type":"VEC3"
		},
		{
			"bufferView":40,
			"componentType":5126,
			"count":2,
			"type":"VEC3"
		},
		{
			"bufferView":41,
			"componentType":5126,
			"count":25,
			"type":"VEC4"
		},
		{
			"bufferView":42,
			"componentType":5126,
			"count":2,
			"type":"VEC3"
		},
		{
			"bufferView":43,
			"componentType":5126,
			"count":2,
			"type":"VEC3"
		},
		{
			"bufferView":44,
			"componentType":5126,
			"count":25,
			"type":"VEC4"
		},
		{
			"bufferView":45,
			"componentType":5126,
			"count":2,
			"type":"VEC3"
		},
		{
			"bufferView":46,
			"componentType":5126,
			"count":25,
			"type":"VEC3"
		},
		{
			"bufferView":47,
			"componentType":5126,
			"count":2,
			"type":"VEC4"
		},
		{
			"bufferView":48,
			"componentType":5126,
			"count":2,
			"type":"VEC3"
		},
		{
			"bufferView":49,
			"componentType":5126,
			"count":2,
			"type":"VEC3"
		},
		{
			"bufferView":50,
			"componentType":5126,
			"count":25,
			"type":"VEC4"
		},
		{
			"bufferView":51,
			"componentType":5126,
			"count":2,
			"type":"VEC3"
		},
		{
			"bufferView":52,
			"componentType":5126,
			"count":2,
			"type":"VEC3"
		},
		{
			"bufferView":53,
			"componentType":5126,
			"count":25,
			"type":"VEC4"
		},
		{
			"bufferView":54,
			"componentType":5126,
			"count":2,
			"type":"VEC3"
		},
		{
			"bufferView":55,
			"componentType":5126,
			"count":1,
			"max":[
				0.4166666666666667
			],
			"min":[
				0.4166666666666667
			],
			"type":"SCALAR"
		},
		{
			"bufferView":56,
			"componentType":5126,
			"count":1,
			"type":"VEC3"
		},
		{
			"bufferView":57,
			"componentType":5126,
			"count":1,
			"type":"VEC4"
		},
		{
			"bufferView":58,
			"componentType":5126,
			"count":1,
			"type":"VEC3"
		},
		{
			"bufferView":59,
			"componentType":5126,
			"count":1,
			"type":"VEC3"
		},
		{
			"bufferView":60,
			"componentType":5126,
			"count":1,
			"type":"VEC4"
		},
		{
			"bufferView":61,
			"componentType":5126,
			"count":1,
			"type":"VEC3"
		},
		{
			"bufferView":62,
			"componentType":5126,
			"count":1,
			"type":"VEC3"
		},
		{
			"bufferView":63,
			"componentType":5126,
			"count":1,
			"type":"VEC4"
		},
		{
			"bufferView":64,
			"componentType":5126,
			"count":1,
			"type":"VEC3"
		},
		{
			"bufferView":65,
			"componentType":5126,
			"count":1,
			"type":"VEC3"
		},
		{
			"bufferView":66,
			"componentType":5126,
			"count":1,
			"type":"VEC4"
		},
		{
			"bufferView":67,
			"componentType":5126,
			"count":1,
			"type":"VEC3"
		},
		{
			"bufferView":68,
			"componentType":5126,
			"count":1,
			"type":"VEC3"
		},
		{
			"bufferView":69,
			"componentType":5126,
			"count":1,
			"type":"VEC4"
		},
		{
			"bufferView":70,
			"componentType":5126,
			"count":1,
			"type":"VEC3"
		},
		{
			"bufferView":71,
			"componentType":5126,
			"count":1,
			"type":"VEC3"
		},
		{
			"bufferView":72,
			"componentType":5126,
			"count":1,
			"type":"VEC4"
		},
		{
			"bufferView":73,
			"componentType":5126,
			"count":1,
			"type":"VEC3"
		}
	],
	"bufferViews":[
		{
			"buffer":0,
			"byteLength":4200,
			"byteOffset":0,
			"target":34962
		},
		{
			"buffer":0,
			"byteLength":4200,
			"byteOffset":4200,
			"target":34962
		},
		{
			"buffer":0,
			"byteLength":2800,
			"byteOffset":8400,
			"target":34962
		},
		{
			"buffer":0,
			"byteLength":2800,
			"byteOffset":11200,
			"target":34962
		},
		{
			"buffer":0,
			"byteLength":1400,
			"byteOffset":14000,
			"target":34962
		},
		{
			"buffer":0,
			"byteLength":5600,
			"byteOffset":15400,
			"target":34962
		},
		{
			"buffer":0,
			"byteLength":1344,
			"byteOffset":21000,
			"target":34963
		},
		{
			"buffer":0,
			"byteLength":384,
			"byteOffset":22344
		},
		{
			"buffer":0,
			"byteLength":1560,
			"byteOffset":22728,
			"target":34962
		},
		{
			"buffer":0,
			"byteLength":1560,
			"byteOffset":24288,
			"target":34962
		},
		{
			"buffer":0,
			"byteLength":1040,
			"byteOffset":25848,
			"target":34962
		},
		{
			"buffer":0,
			"byteLength":1040,
			"byteOffset":26888,
			"target":34962
		},
		{
			"buffer":0,
			"byteLength":520,
			"byteOffset":27928,
			"target":34962
		},
		{
			"buffer":0,
			"byteLength":2080,
			"byteOffset":28448,
			"target":34962
		},
		{
			"buffer":0,
			"byteLength":360,
			"byteOffset":30528,
			"target":34963
		},
		{
			"buffer":0,
			"byteLength":44,
			"byteOffset":30888
		},
		{
			"buffer":0,
			"byteLength":132,
			"byteOffset":30932
		},
		{
			"buffer":0,
			"byteLength":176,
			"byteOffset":31064
		},
		{
			"buffer":0,
			"byteLength":8,
			"byteOffset":31240
		},
		{
			"buffer":0,
			"byteLength":24,
			"byteOffset":31248
		},
		{
			"buffer":0,
			"byteLength":24,
			"byteOffset":31272
		},
		{
			"buffer":0,
			"byteLength":32,
			"byteOffset":31296
		},
		{
			"buffer":0,
			"byteLength":24,
			"byteOffset":31328
		},
		{
			"buffer":0,
			"byteLength":24,
			"byteOffset":31352
		},
		{
			"buffer":0,
			"byteLength":176,
			"byteOffset":31376
		},
		{
			"buffer":0,
			"byteLength":24,
			"byteOffset":31552
		},
		{
			"buffer":0,
			"byteLength":24,
			"byteOffset":31576
		},
		{
			"buffer":0,
			"byteLength":176,
			"byteOffset":31600
		},
		{
			"buffer":0,
			"byteLength":24,
			"byteOffset":31776
		},
		{
			"buffer":0,
			"byteLength":24,
			"byteOffset":31800
		},
		{
			"buffer":0,
			"byteLength":32,
			"byteOffset":31824
		},
		{
			"buffer":0,
			"byteLength":24,
			"byteOffset":31856
		},
		{
			"buffer":0,
			"byteLength":24,
			"byteOffset":31880
		},
		{
			"buffer":0,
			"byteLength":176,
			"byteOffset":31904
		},
		{
			"buffer":0,
			"byteLength":24,
			"byteOffset":32080
		},
		{
			"buffer":0,
			"byteLength":100,
			"byteOffset":32104
		},
		{
			"buffer":0,
			"byteLength":300,
			"byteOffset":32204
		},
		{
			"buffer":0,
			"byteLength":8,
			"byteOffset":32504
		},
		{
			"buffer":0,
			"byteLength":32,
			"byteOffset":32512
		},
		{
			"buffer":0,
			"byteLength":24,
			"byteOffset":32544
		},
		{
			"buffer":0,
			"byteLength":24,
			"byteOffset":32568
		},
		{
			"buffer":0,
			"byteLength":400,
			"byteOffset":32592
		},
		{
			"buffer":0,
			"byteLength":24,
			"byteOffset":32992
		},
		{
			"buffer":0,
			"byteLength":24,
			"byteOffset":33016
		},
		{
			"buffer":0,
			"byteLength":400,
			"byteOffset":33040
		},
		{
			"buffer":0,
			"byteLength":24,
			"byteOffset":33440
		},
		{
			"buffer":0,
			"byteLength":300,
			"byteOffset":33464
		},
		{
			"buffer":0,
			"byteLength":32,
			"byteOffset":33764
		},
		{
			"buffer":0,
			"byteLength":24,
			"byteOffset":33796
		},
		{
			"buffer":0,
			"byteLength":24,
			"byteOffset":33820
		},
		{
			"buffer":0,
			"byteLength":400,
			"byteOffset":33844
		},
		{
			"buffer":0,
			"byteLength":24,
			"byteOffset":34244
		},
		{
			"buffer":0,
			"byteLength":24,
			"byteOffset":34268
		},
		{
			"buffer":0,
			"byteLength":400,
			"byteOffset":34292
		},
		{
			"buffer":0,
			"byteLength":24,
			"byteOffset":34692
		},
		{
			"buffer":0,
			"byteLength":4,
			"byteOffset":34716
		},
		{
			"buffer":0,
			"byteLength":12,
			"byteOffset":34720
		},
		{
			"buffer":0,
			"byteLength":16,
			"byteOffset":34732
		},
		{
			"buffer":0,
			"byteLength":12,
			"byteOffset":34748
		},
		{
			"buffer":0,
			"byteLength":12,
			"byteOffset":34760
		},
		{
			"buffer":0,
			"byteLength":16,
			"byteOffset":34772
		},
		{
			"buffer":0,
			"byteLength":12,
			"byteOffset":34788
		},
		{
			"buffer":0,
			"byteLength":12,
			"byteOffset":34800
		},
		{
			"buffer":0,
			"byteLength":16,
			"byteOffset":34812
		},
		{
			"buffer":0,
			"byteLength":12,
			"byteOffset":34828
		},
		{
			"buffer":0,
			"byteLength":12,
			"byteOffset":34840
		},
		{
			"buffer":0,
			"byteLength":16,
			"byteOffset":34852
		},
		{
			"buffer":0,
			"byteLength":12,
			"byteOffset":34868
		},
		{
			"buffer":0,
			"byteLength":12,
			"byteOffset":34880
		},
		{
			"buffer":0,
			"byteLength":16,
			"byteOffset":34892
		},
		{
			"buffer":0,
			"byteLength":12,
			"byteOffset":34908
		},
		{
			"buffer":0,
			"byteLength":12,
			"byteOffset":34920
		},
		{
			"buffer":0,
			"byteLength":16,
			"byteOffset":34932
		},
		{
			"buffer":0,
			"byteLength":12,
			"byteOffset":34948
		}
	],
	"samplers":[
		{
			"magFilter":9729,
			"minFilter":9987
		}
	],
	"buffers":[
		{
			"byteLength":34960,
			"uri":"ChiledKoala.bin"
		}
	]
}
